<svg version="1.2" xmlns="http://www.w3.org/2000/svg" viewBox="0 0 500 500" width="500" height="500">
	<title>GROOTLOGO-removebg--WHITE-VECTORIZADO-svg</title>
	<style>
		tspan { white-space:pre } 
		.s0 { fill: #e0e2e4 } 
		.s1 { fill: #dde0e2 } 
		.s2 { opacity: .4;fill: #76777c } 
		.s3 { fill: #eaebec } 
		.s4 { fill: #e1e2e4 } 
		.s5 { fill: #f6f6f5 } 
		.s6 { fill: #e9ebec } 
		.s7 { fill: #e2e4e6 } 
		.s8 { fill: #e6e8ea } 
		.s9 { fill: #d9dcde } 
		.s10 { fill: #ecedef } 
		.s11 { fill: #e1e3e6 } 
		.s12 { fill: #d9dddf } 
		.s13 { fill: #ecedee } 
		.s14 { fill: #d6d9de } 
		.s15 { fill: #eaecee } 
		.s16 { opacity: .1;fill: #4a5054 } 
		.s17 { fill: #e0e3e6 } 
		.s18 { fill: #dee2e4 } 
		.s19 { fill: #dee1e5 } 
		.s20 { fill: #eaedec } 
		.s21 { fill: #e6e9e9 } 
		.s22 { opacity: .4;fill: #6a6d72 } 
		.s23 { fill: #f4f3f3 } 
		.s24 { opacity: 1;fill: #e8eaec } 
		.s25 { opacity: 1;fill: #eaeaec } 
		.s26 { opacity: 0;fill: #09090c } 
		.s27 { opacity: .6;fill: #9fa4aa } 
		.s28 { fill: #e1e4e7 } 
		.s29 { fill: #dbdee0 } 
		.s30 { fill: #f3f4f5 } 
		.s31 { fill: #f1f2f2 } 
		.s32 { fill: #d6d8d8 } 
		.s33 { fill: #dadce1 } 
		.s34 { opacity: .4;fill: #4d5258 } 
		.s35 { opacity: 0;fill: #01000b } 
		.s36 { opacity: 1;fill: #cccfd3 } 
		.s37 { fill: #f4f5f4 } 
		.s38 { fill: #f7f6f4 } 
		.s39 { fill: #dddfe1 } 
		.s40 { fill: #dcdee1 } 
		.s41 { fill: #f7f7f7 } 
		.s42 { fill: #f6f5f2 } 
		.s43 { opacity: .3;fill: #51575e } 
		.s44 { fill: #f3f4f3 } 
		.s45 { opacity: .9;fill: #c7cbd0 } 
		.s46 { fill: #e3e6e9 } 
		.s47 { fill: #d3d7da } 
		.s48 { fill: #f1f2f4 } 
		.s49 { opacity: 0;fill: #141617 } 
		.s50 { fill: #e8e9ea } 
		.s51 { opacity: .6;fill: #9b9ea0 } 
		.s52 { fill: #d8dbe0 } 
		.s53 { fill: #f0f0f0 } 
		.s54 { opacity: .9;fill: #d6dade } 
		.s55 { fill: #eeeeef } 
		.s56 { fill: #f5f5f4 } 
		.s57 { fill: #d9dbe0 } 
		.s58 { opacity: 1;fill: #e9eaeb } 
		.s59 { opacity: .3;fill: #7b7d85 } 
		.s60 { opacity: 1;fill: #dbdde0 } 
		.s61 { opacity: .1;fill: #222429 } 
		.s62 { fill: #daddde } 
		.s63 { opacity: 1;fill: #cbced3 } 
		.s64 { opacity: 0;fill: #000000 } 
		.s65 { fill: #dde0e1 } 
		.s66 { opacity: 0;fill: #3a3e41 } 
		.s67 { fill: #f7f7f9 } 
		.s68 { fill: #f7f6f3 } 
		.s69 { fill: #ecedec } 
		.s70 { opacity: 0;fill: #2b2f35 } 
		.s71 { fill: #e3e4e6 } 
		.s72 { fill: #e0e2e3 } 
		.s73 { fill: #dbdce0 } 
		.s74 { opacity: 0;fill: #111717 } 
		.s75 { opacity: 0;fill: #4e5358 } 
		.s76 { opacity: .1;fill: #43454a } 
		.s77 { fill: #eff1f3 } 
		.s78 { opacity: .4;fill: #676e77 } 
		.s79 { fill: #f4f5f7 } 
		.s80 { opacity: .8;fill: #697074 } 
		.s81 { fill: #f1f1f2 } 
		.s82 { fill: #f4f6f6 } 
		.s83 { opacity: .4;fill: #333a42 } 
		.s84 { opacity: 0;fill: #1f2026 } 
		.s85 { opacity: .1;fill: #2d2f36 } 
		.s86 { fill: #eff0f0 } 
		.s87 { opacity: 1;fill: #f1f2f3 } 
		.s88 { fill: #e4e6e7 } 
		.s89 { fill: #e1e4e6 } 
		.s90 { fill: #e9eaeb } 
		.s91 { fill: #d2d3d5 } 
		.s92 { fill: #ebeced } 
		.s93 { fill: #f2f2f3 } 
		.s94 { fill: #efeff1 } 
		.s95 { opacity: .6;fill: #99989d } 
		.s96 { opacity: 1;fill: #c9cdd3 } 
		.s97 { fill: #d6d8da } 
		.s98 { fill: #dedfe1 } 
		.s99 { fill: #c6ccd2 } 
		.s100 { opacity: 1;fill: #d2d4d9 } 
		.s101 { fill: #d1d4d6 } 
		.s102 { opacity: .8;fill: #a0a3a7 } 
		.s103 { opacity: 1;fill: #b8bdc2 } 
		.s104 { fill: #e1e3e5 } 
		.s105 { fill: #f3f3f3 } 
		.s106 { opacity: .5;fill: #7e8282 } 
		.s107 { fill: #f8f8f9 } 
		.s108 { opacity: .5;fill: #444a52 } 
		.s109 { opacity: .1;fill: #343840 } 
		.s110 { opacity: .5;fill: #818284 } 
		.s111 { opacity: 1;fill: #cfd3d7 } 
		.s112 { fill: #dddfe5 } 
		.s113 { fill: #d8d9dd } 
		.s114 { fill: #e6e7ea } 
		.s115 { opacity: .4;fill: #64676a } 
		.s116 { fill: #dee0e3 } 
		.s117 { fill: #f6f6f6 } 
		.s118 { fill: #f2f3f3 } 
		.s119 { opacity: .2;fill: #414c51 } 
		.s120 { fill: #eaebed } 
		.s121 { fill: #f5f6f6 } 
		.s122 { opacity: .2;fill: #292d30 } 
		.s123 { fill: #ecedf0 } 
		.s124 { opacity: 0;fill: #27282a } 
		.s125 { opacity: .1;fill: #2b2c30 } 
		.s126 { fill: #f7f8f6 } 
		.s127 { fill: #d9dce0 } 
		.s128 { opacity: .2;fill: #52555c } 
		.s129 { opacity: .2;fill: #545c5c } 
		.s130 { fill: #b8bdc2 } 
		.s131 { fill: #f9f9f8 } 
		.s132 { fill: #eff1f2 } 
		.s133 { fill: #ecefee } 
		.s134 { fill: #c2c8cf } 
		.s135 { fill: #f6f8f8 } 
		.s136 { opacity: .1;fill: #2f3235 } 
		.s137 { fill: #f5f5f5 } 
		.s138 { fill: #e8eaec } 
		.s139 { fill: #e3e4e7 } 
		.s140 { fill: #d6d9dc } 
		.s141 { opacity: .1;fill: #4b5155 } 
		.s142 { fill: #e0e4e6 } 
		.s143 { fill: #c9cdd0 } 
		.s144 { fill: #e3e5e8 } 
		.s145 { fill: #a2a7ac } 
		.s146 { fill: #eaeced } 
		.s147 { fill: #caced4 } 
		.s148 { opacity: .3;fill: #3f4046 } 
		.s149 { fill: #edeeee } 
		.s150 { fill: #e6e7e9 } 
		.s151 { fill: #ccced2 } 
		.s152 { fill: #dcdee0 } 
		.s153 { opacity: .5;fill: #8a8c8f } 
		.s154 { fill: #d1d2d4 } 
		.s155 { fill: #c2cad4 } 
		.s156 { opacity: .5;fill: #828890 } 
		.s157 { fill: #d9dbdd } 
		.s158 { fill: #dee1e2 } 
		.s159 { fill: #fbfbfb } 
		.s160 { fill: #dfe1e4 } 
		.s161 { fill: #e3e6eb } 
		.s162 { fill: #d8dbde } 
		.s163 { fill: #c5c7cd } 
		.s164 { fill: #eeeff1 } 
		.s165 { fill: #f6f7f7 } 
		.s166 { fill: #f6f6f7 } 
		.s167 { opacity: .6;fill: #a8b0b5 } 
		.s168 { fill: #f7f7f8 } 
		.s169 { fill: #e2e3e3 } 
		.s170 { opacity: 0;fill: #183136 } 
		.s171 { fill: #eff2f1 } 
		.s172 { opacity: 1;fill: #b1bcc2 } 
		.s173 { fill: #f1f3f3 } 
		.s174 { fill: #f5f5f6 } 
		.s175 { fill: #f8f9f9 } 
		.s176 { opacity: .8;fill: #808488 } 
		.s177 { fill: #c0cad0 } 
		.s178 { fill: #d4d6d9 } 
		.s179 { fill: #d4d6d8 } 
		.s180 { fill: #c5c7cb } 
		.s181 { fill: #d8dcde } 
		.s182 { fill: #f8f8f8 } 
		.s183 { opacity: 0;fill: #2e2e31 } 
		.s184 { fill: #ced0d3 } 
		.s185 { fill: #ced3da } 
		.s186 { fill: #cbd0d5 } 
		.s187 { opacity: 1;fill: #c9ccd0 } 
		.s188 { opacity: .3;fill: #6d7174 } 
		.s189 { opacity: .4;fill: #74787e } 
		.s190 { fill: #f6f5f6 } 
		.s191 { fill: #d3d5da } 
		.s192 { fill: #f9fafa } 
		.s193 { fill: #eff0f1 } 
		.s194 { fill: #dee0e2 } 
		.s195 { fill: #cccfd3 } 
		.s196 { opacity: .5;fill: #676972 } 
		.s197 { fill: #f8f9f8 } 
		.s198 { opacity: .9;fill: #777a81 } 
		.s199 { fill: #e2e4e5 } 
		.s200 { fill: #d5d9de } 
		.s201 { fill: #d6d8dc } 
		.s202 { opacity: 1;fill: #d7d9dc } 
		.s203 { fill: #c7ccd0 } 
		.s204 { opacity: .1;fill: #2f3039 } 
		.s205 { fill: #dadde0 } 
		.s206 { opacity: .2;fill: #495257 } 
		.s207 { fill: #eceeee } 
		.s208 { opacity: 1;fill: #b9bec3 } 
		.s209 { fill: #f7f7f6 } 
		.s210 { fill: #aeb6be } 
		.s211 { fill: #ebeeee } 
		.s212 { fill: #dcdfe2 } 
		.s213 { opacity: .5;fill: #7e7e80 } 
		.s214 { fill: #d8dcdf } 
		.s215 { fill: #f7f8f8 } 
		.s216 { opacity: 1;fill: #c2c9ce } 
		.s217 { opacity: .4;fill: #656a73 } 
		.s218 { fill: #d7dadb } 
		.s219 { opacity: .1;fill: #44494d } 
		.s220 { fill: #e5e6e7 } 
		.s221 { fill: #f6f8fa } 
		.s222 { opacity: .4;fill: #767c82 } 
		.s223 { fill: #f4f4f5 } 
		.s224 { fill: #e0e1e2 } 
		.s225 { fill: #efefef } 
		.s226 { fill: #edeeef } 
		.s227 { fill: #dfe1e2 } 
		.s228 { fill: #f8f8f7 } 
		.s229 { fill: #dcdddf } 
		.s230 { fill: #f8f7f7 } 
		.s231 { fill: #eaeceb } 
		.s232 { fill: #eaebeb } 
		.s233 { fill: #f9f9f9 } 
		.s234 { fill: #f5f6f4 } 
		.s235 { fill: #e7eaea } 
		.s236 { fill: #f6f7f6 } 
		.s237 { opacity: 1;fill: #f0f0f1 } 
		.s238 { fill: #e8e9e9 } 
		.s239 { fill: #d2d4d6 } 
		.s240 { fill: #f6f5f5 } 
		.s241 { fill: #f1f2f3 } 
		.s242 { fill: #dcdddd } 
		.s243 { fill: #f6f4f5 } 
		.s244 { fill: #f2f2f2 } 
		.s245 { fill: #f7f6f5 } 
		.s246 { opacity: 1;fill: #c7cccf } 
		.s247 { fill: #f6f4f2 } 
		.s248 { fill: #efeff0 } 
		.s249 { fill: #ebecec } 
		.s250 { fill: #e9e9eb } 
		.s251 { opacity: .5;fill: #777c80 } 
		.s252 { fill: #e7e9ea } 
		.s253 { fill: #ececeb } 
		.s254 { opacity: .9;fill: #c4cad0 } 
		.s255 { fill: #f3f2f1 } 
		.s256 { fill: #ebedee } 
		.s257 { fill: #ededee } 
		.s258 { fill: #f8f7f6 } 
		.s259 { fill: #f1f1f1 } 
		.s260 { fill: #f4f4f4 } 
		.s261 { fill: #eaecec } 
		.s262 { fill: #efeeef } 
		.s263 { fill: #f7f8f7 } 
		.s264 { fill: #f8f7f5 } 
		.s265 { opacity: .6;fill: #9fa5ab } 
		.s266 { opacity: .7;fill: #9ea4a9 } 
		.s267 { opacity: 0;fill: #2a3234 } 
		.s268 { opacity: .1;fill: #313336 } 
		.s269 { opacity: .2;fill: #33393f } 
		.s270 { opacity: .2;fill: #353b41 } 
		.s271 { opacity: .6;fill: #878d92 } 
		.s272 { opacity: .2;fill: #63696d } 
		.s273 { opacity: .3;fill: #5c6265 } 
		.t274 { font-size: 42px;fill: #ffffff;font-weight: 400;font-family: "DejaVuSans", "DejaVu Sans" } 
		.s275 { opacity: .9;fill: #8d98a3 } 
	</style>
	<g id="Layer">
		<path id="Layer" fill-rule="evenodd" class="s0" d="m269.5 58.5q3.2 2.9 7 2-3.2 3.2-8 3-5.5-0.2-11 0.5 1.8 0.6 3 2 9.7 2.3 19 4.5-2.6-0.2-5 1-1.8 1.2 0 2.5-3.2 0.5-1 2.5-10.2-3.9-20-9-14.2 3.8-25 13.5-4 0.7-8 0.5-0.1-1.9-2-2.5 0.5-0.5 1-1-1-1.6-1.5-3.5-0.6 2.2-2.5 1.5 1.3-2.4 4-3-1.9-0.7-4-0.5 16.6-3.2 33-8 1.2-0.4 2-1.5-5.8-1.2-11 0.5-6.9 1.2-14 2 2.2-2 2-5-2 0-4 0 14.4-3.2 29.5-4 8.5 0.8 16.5 2z"/>
	</g>
	<g id="Layer">
		<path id="Layer" fill-rule="evenodd" class="s1" d="m269.5 58.5q31.5 3 59 18-1.3 1.6-2.5 0-1 1 0 2 3.5 2.4 7.5 4 1.3 1.2 1 3-31.1-16.7-66-22 4.8 0.2 8-3-3.8 0.9-7-2z"/>
	</g>
	<g id="Layer">
		<path id="Layer" fill-rule="evenodd" class="s2" d="m239.5 63.5q5.2-1.7 11-0.5-0.8 1.1-2 1.5-4.2-1.5-9-1z"/>
	</g>
	<g id="Layer">
		<path id="Layer" fill-rule="evenodd" class="s3" d="m223.5 60.5q2 0 4 0 0.2 3-2 5-8.4 2.2-17 4-3.4-1.9-5.5 1-1.7-1.6-1.5-3.5 4.8-1.4 9-3.5 6.1-2.6 13-3z"/>
	</g>
	<g id="Layer">
		<path id="Layer" fill-rule="evenodd" class="s4" d="m210.5 63.5q-4.2 2.1-9 3.5-0.2 1.9 1.5 3.5 2.1-2.9 5.5-1-17.9 5.7-35 14-0.9-0.2-1.5-1-2.6 2.2-5.5 4-2-1-3-3 21.6-14 47-20z"/>
	</g>
	<g id="Layer">
		<path id="Layer" fill-rule="evenodd" class="s5" d="m279.5 70.5q1 0 2 0 5.6 2.3 11 5 0.3 3.3-2.5 5-2.1-1.4-4.5 0-5.5-3.5-12-4-2.2-2 1-2.5-1.8-1.3 0-2.5 2.4-1.2 5-1z"/>
	</g>
	<g id="Layer">
		<path id="Layer" fill-rule="evenodd" class="s6" d="m215.5 72.5q2.1-0.2 4 0.5-2.7 0.6-4 3 1.9 0.7 2.5-1.5 0.5 1.9 1.5 3.5-0.5 0.5-1 1 1.9 0.6 2 2.5-19.1 4.2-37 12-2.8-1.6-6-2.5 2.1-2.2-1-2.5 17.9-11.5 39-16z"/>
	</g>
	<g id="Layer">
		<path id="Layer" fill-rule="evenodd" class="s7" d="m281.5 70.5q19 3.3 36 12-2-0.3-3.5 1-2.4-2.7-4.5-0.5 2.2 1.6 2.5 4.5 5 1.4 10.5 4 0 1.5 0 3-20.8-10.5-44-13.5-2-3-5-4.5 6.5 0.5 12 4 2.4-1.4 4.5 0 2.8-1.7 2.5-5-5.4-2.7-11-5z"/>
	</g>
	<g id="Layer">
		<path id="Layer" fill-rule="evenodd" class="s8" d="m328.5 76.5q11.2 4.8 21 12-0.5 3.3 2 5.5-0.5 0.3-1 0.5-2.5-2.5-5-5-1.4 0.9-3 1-4.6-1.8-8-5 0.3-1.8-1-3-4-1.6-7.5-4-1-1 0-2 1.2 1.6 2.5 0z"/>
	</g>
	<g id="Layer">
		<path id="Layer" fill-rule="evenodd" class="s9" d="m173.5 83.5q-12.2 8.4-25 16 0-2 0-4-1.5 0-3 0 8.6-6.6 18-12 1 2 3 3 2.9-1.8 5.5-4 0.6 0.8 1.5 1z"/>
	</g>
	<g id="Layer">
		<path id="Layer" fill-rule="evenodd" class="s10" d="m317.5 82.5q10.8 5.1 21 11 2.8 3.6 4 8-5.8-2.7-12-4.5-3.3-4.2-8-2.5 0-1.5 0-3-5.5-2.6-10.5-4-0.3-2.9-2.5-4.5 2.1-2.2 4.5 0.5 1.5-1.3 3.5-1z"/>
	</g>
	<g id="Layer">
		<path id="Layer" fill-rule="evenodd" class="s11" d="m176.5 88.5q3.1 0.3 1 2.5 3.2 0.9 6 2.5-9.9 6.5-20 13 1.1-4.2 3-8 4.2-1.3 8 0-0.3-2.8 2-4.5-5.5 0-10.5 2.5-1-1.1-2.5-1 6.1-4 13-7z"/>
	</g>
	<g id="Layer">
		<path id="Layer" fill-rule="evenodd" class="s12" d="m192.5 102.5q-0.2-2.4 2-3.5-0.9-2.1-3-2.5 11.4-5.1 23.5-9 1 3.5 0 7-3.7 2.2-6.5 5.5-1.7 1.1-3-0.5 1.2-1.4 0.5-3-6.8 2.9-13.5 6z"/>
	</g>
	<g id="Layer">
		<path id="Layer" fill-rule="evenodd" class="s13" d="m267.5 85.5q-1.5 13-3 26 0 2 0 4-0.5 0-1 0-1.2 5.2-1.5 11-1.6 3.2-3.5 0.5 2-1.5 0-3 3.1-0.5 1-2.5 2.6-4.2 2-8.5-6.8-4.8-1-10-1.4-2.7-2.5 0.5-0.1-2.4-0.5-4-1.5 32-1 64 0.4 2.9-1 5 0-44.5 0-89 6.9 1.4 12 6z"/>
	</g>
	<g id="Layer">
		<path id="Layer" fill-rule="evenodd" class="s14" d="m315.5 97.5q-2-0.3-3.5 1-2.8-4-7.5-3.5 2.8 1.4 1 3.5-3.4-0.3-6.5-2-0.8 0.3-1.5 0.5 2.6 5.5-2 3-2.6-2.4-5.5-4.5-1.2-4.1 0.5-8 13.1 3.9 25 10z"/>
	</g>
	<g id="Layer">
		<path id="Layer" fill-rule="evenodd" class="s15" d="m267.5 85.5q1.5 3.7 1 8 0.4 11.4 2-1-0.4-3.2 1-6 7 4.5 12 11-1.3 3.9-1 8-1.4 2.6-1 6-1-0.5-2-1-0.6-1.1-2-1.5 0.5-0.5 1-1-1.7-0.4-3-1.5 1.1-0.4 2.5-1 1.1-2.9-0.5-5.5-3-0.5-1 2-2.4 1.3-5 2 3.6 0.8 2 3.5-1.5-2-4-2 0.4 2.9-2 4.5 0.3 0.6 1 0.5-0.4 9.9-1 21.5 1.4 0.7 3 0.5-1.8 6.7 2.5 12 1.3-4.3 4.5-7 0.4 3.5-2 6-1.5 4.2-1 9-1.2-2.2-1.5-5-0.5 1-1 2-0.9-5.1-4-9-0.3 2.7-2.5 4 0-4.5 0-9 0.5-12.3-1-24 1.5-13 3-26z"/>
	</g>
	<g id="Layer">
		<path id="Layer" fill-rule="evenodd" class="s16" d="m270.5 92.5q-1.6 12.4-2 1 1-0.5 2-1z"/>
	</g>
	<g id="Layer">
		<path id="Layer" fill-rule="evenodd" class="s17" d="m315.5 97.5q23 10.5 41 28 1.2 2.2 0 4-2.4-1.2-5-1-21.1-18-46-30 1.8-2.1-1-3.5 4.7-0.5 7.5 3.5 1.5-1.3 3.5-1z"/>
	</g>
	<g id="Layer">
		<path id="Layer" fill-rule="evenodd" class="s18" d="m338.5 93.5q8.6 5.3 16 12-2.9-1-5.5 0-0.5-2.9-2.5-5-1.4 1.8-1 4-2.5-0.3-3 2-10-6-20-12 4.7-1.7 8 2.5 6.2 1.8 12 4.5-1.2-4.4-4-8z"/>
	</g>
	<g id="Layer">
		<path id="Layer" fill-rule="evenodd" class="s19" d="m349.5 88.5q11.8 6.8 21 17 0.9 3.5 3 6.5-1.9 0.7-4 0.5-12.7-12.2-27-22 1.6-0.1 3-1 2.5 2.5 5 5 0.5-0.3 1-0.5-2.5-2.2-2-5.5z"/>
	</g>
	<g id="Layer">
		<path id="Layer" fill-rule="evenodd" class="s20" d="m163.5 106.5q-4.5 3-9 6 0.3-2.9 2.5-5 1 1.8 1.5 0-0.9-3.9-4-2-1.8-0.5 0-1.5-0.9-0.7-2-0.5 4.7-5.1 11-8 1.5-0.1 2.5 1 5-2.5 10.5-2.5-2.3 1.7-2 4.5-3.8-1.3-8 0-1.9 3.8-3 8z"/>
	</g>
	<g id="Layer">
		<path id="Layer" fill-rule="evenodd" class="s21" d="m191.5 96.5q2.1 0.4 3 2.5-2.2 1.1-2 3.5-8.8 4.1-17 9-6.5-0.4-2-5 8-6.5 18-10z"/>
	</g>
	<g id="Layer">
		<path id="Layer" fill-rule="evenodd" class="s22" d="m219.5 102.5q0 5 0 10-1.1-3.2-3-6 1.7-1.9 3-4z"/>
	</g>
	<g id="Layer">
		<path id="Layer" fill-rule="evenodd" class="s23" d="m279.5 110.5q-2.2-0.1-3 2 0.8 5.1 1 10-0.3 2.7-2.5 4-1.7-4.8-2.5-10 0.6-1.2 1-2.5-1.6-2.1-2.5-4.5-1 1.1-2.5 1-0.7 0.1-1-0.5 2.4-1.6 2-4.5 2.5 0 4 2 1.6-2.7-2-3.5 2.6-0.7 5-2-2-2.5 1-2 1.6 2.6 0.5 5.5-1.4 0.6-2.5 1 1.3 1.1 3 1.5-0.5 0.5-1 1 1.4 0.4 2 1.5z"/>
	</g>
	<g id="Layer">
		<path id="Layer" fill-rule="evenodd" class="s24" d="m354.5 105.5q16 11 27 27 0.3 3-1.5 6-0.5-1.5-1-3-0.5 0.5-1 1-2.5-3.1-6.5-3-7.7-8.4-16-16.5-7.2-4.5-13-10.5 0.5-2.3 3-2-0.4-2.2 1-4 2 2.1 2.5 5 2.6-1 5.5 0z"/>
	</g>
	<g id="Layer">
		<path id="Layer" fill-rule="evenodd" class="s3" d="m152.5 103.5q1.1-0.2 2 0.5-1.8 1 0 1.5 3.1-1.9 4 2-0.5 1.8-1.5 0-2.2 2.1-2.5 5-17.6 14.1-31 32-2.1-2.7-1.5-6 0.5 1.5 1 3 1.1-2.2 3.5-2-0.8-4.1 3-5.5-1.1-3.8-5-3.5 11.1-16.6 28-27z"/>
	</g>
	<g id="Layer">
		<path id="Layer" fill-rule="evenodd" class="s25" d="m227.5 116.5q-0.5 3 2 4 0 4.5 0 9-1.2-1.1-1.5-3-2 0.4-4.5 0.5 1.8 1 0 1.5-0.5-0.8-1-1.5 3.9-3.5 2.5-8.5-0.6 0.8-1.5 1-0.9-0.2-1.5-1-1.6 2.4-4.5 2 0.4 2.2-1 4-0.5-0.3-1-0.5 0-2.5 0-5 1.8-0.7 2.5-2.5 0.5 1 1 2 0.7-3 0.5-6 0-5 0-10 3.4-2.6 6.5-6 1.7 9.9 1.5 20z"/>
	</g>
	<g id="Layer">
		<path id="Layer" fill-rule="evenodd" class="s26" d="m284.5 113.5q0.4 3.4-1 6 0.3-1.5-1-2 0-0.5 0-1 2-0.5 0-1 0-0.5 0-1 1-0.5 2-1z"/>
	</g>
	<g id="Layer">
		<path id="Layer" fill-rule="evenodd" class="s27" d="m282.5 105.5q0 4.5 0 9 0 0.5 0 1 0 0.5 0 1 0 0.5 0 1-0.5 5.3 1 10 0.2 2.7-1 5-0.5 0-1 0 0-10.5 0-21-0.4-3.4 1-6z"/>
	</g>
	<g id="Layer">
		<path id="Layer" fill-rule="evenodd" class="s28" d="m145.5 95.5q1.5 0 3 0 0 2 0 4-14 13-27 27-1.5 0.1-2.5-1-0.5 1-1 2-0.7-3.1 0.5-6 12.5-14.1 27-26z"/>
	</g>
	<g id="Layer">
		<path id="Layer" fill-rule="evenodd" class="s29" d="m173.5 106.5q-4.5 4.6 2 5-17.8 11.8-33 27-2.7 0-5-1.5 3.7-0.1 2-2.5 14.3-17.3 34-28z"/>
	</g>
	<g id="Layer">
		<path id="Layer" fill-rule="evenodd" class="s30" d="m235.5 90.5q1 20.6-2 40.5 0 2.1 1 4.5-1.8 0.7-3.5 1-0.2-3.3-2.5-5.5 0.8-0.6 1-1.5 0-4.5 0-9 0-9.5 0-19-1.4-7.1 4-11.5 1.4-1 2 0.5z"/>
	</g>
	<g id="Layer">
		<path id="Layer" fill-rule="evenodd" class="s31" d="m215.5 107.5q0-1 1-1 1.9 2.8 3 6 0.2 3-0.5 6-0.5-1-1-2-0.7 1.8-2.5 2.5 0 2.5 0 5 0.5 0.3 1 0.5 1.4-1.8 1-4 2.9 0.4 4.5-2 0.6 0.8 1.5 1 0.2 0.9 1 1.5-3.7 0.1-6 2.5 1.2 1.8 2.5 0-0.2 3.9 0.5 7.5-1.9 3-4 5.5 0.2-1.5-1.5-3-0.6 0.7-1.5 1-2.6-13.1 2-25.5-0.1-1.1-1-1.5z"/>
	</g>
	<g id="Layer">
		<path id="Layer" fill-rule="evenodd" class="s32" d="m292.5 129.5q0.2-4.5-0.5-9-0.5 2.5-1 5-0.5-0.5-1-1-0.6 1.8-2 3 0.6-3.1 0.5-6-0.8-2.4-3-1.5-0.9 3.9-2 7.5 0-4 0-8 1.4-2.6 1-6-1.3-4.3 2-8 3.5 2.7 6.5 6 1.2 9.3-0.5 18z"/>
	</g>
	<g id="Layer">
		<path id="Layer" fill-rule="evenodd" class="s33" d="m370.5 105.5q28.4 26.4 44 62 0 3 0 6-3.2-0.1-4-2-15.2-33.2-41-59 2.1 0.2 4-0.5-2.1-3-3-6.5z"/>
	</g>
	<g id="Layer">
		<path id="Layer" fill-rule="evenodd" class="s34" d="m229.5 101.5q0 9.5 0 19-2.5-1-2-4 1-7.5 2-15z"/>
	</g>
	<g id="Layer">
		<path id="Layer" fill-rule="evenodd" class="s35" d="m236.5 121.5q1 6.5 2 13 0 9.5 0 19-1 0-2 0 0-16 0-32z"/>
	</g>
	<g id="Layer">
		<path id="Layer" fill-rule="evenodd" class="s36" d="m201.5 122.5q-1.6-0.1-3-1-0.9 5.6-1 12-1.2 8.2 0 17-4.1-7.6-3.5-16-1.1 2.2-3.5 2 1.1 12.5 1 25-2.2-16.7-2.5-34 4.6-4.1 8-9 2.5 1.8 4.5 4z"/>
	</g>
	<g id="Layer">
		<path id="Layer" fill-rule="evenodd" class="s37" d="m239.5 91.5q4.9 2.4 8 7 0 25.5 0 51-1.2-10.7-1.5-22-1.1 1.7-2.5 0-2.8 6.5 0 13.5-1.2 4.1-1.5 8.5-1.1 1.3-2.5 2 0-30 0-60z"/>
	</g>
	<g id="Layer">
		<path id="Layer" fill-rule="evenodd" class="s38" d="m279.5 110.5q1 0.5 2 1 0 10.5 0 21-4-0.6-8 1.5 2.3 1.5 4 3.5-3.2 2.7-4.5 7-4.3-5.3-2.5-12-1.6 0.2-3-0.5 0.6-11.6 1-21.5 1.5 0.1 2.5-1 0.9 2.4 2.5 4.5-0.4 1.3-1 2.5 0.8 5.2 2.5 10 2.2-1.3 2.5-4-0.2-4.9-1-10 0.8-2.1 3-2z"/>
	</g>
	<g id="Layer">
		<path id="Layer" fill-rule="evenodd" class="s39" d="m235.5 90.5q1.5 15.2 1 31 0 16 0 32 0 4.5 0 9-2.2-5.6-3-12 2.3-4.9-1-9-0.1-2.2-1.5-4-3.4 2.4-4.5 6.5 0.4 7.6 0 15.5-0.5 0-1 0 0-4.5 0-9 0.4-1.9-1-3 0-4.5 0-9-0.7-4.3 2-7.5-1.4-0.7-3-0.5-0.8 11.5-1.5 23-1-4-2 0-0.5-1.2-1.5-2-1.7 4.4-0.5 9 3-0.8 0 2-0.6-0.8-1.5-1-0.5-12.6 1-25 2.1-2.5 4-5.5-0.7-3.6-0.5-7.5-1.3 1.8-2.5 0 2.3-2.4 6-2.5-0.8-0.6-1-1.5 0.9-0.2 1.5-1 1.4 5-2.5 8.5 0.5 0.8 1 1.5 1.8-0.5 0-1.5 2.5-0.1 4.5-0.5 0.3 1.9 1.5 3-0.2 0.9-1 1.5 2.3 2.2 2.5 5.5 1.7-0.3 3.5-1-1-2.4-1-4.5 3-19.9 2-40.5z"/>
	</g>
	<g id="Layer">
		<path id="Layer" fill-rule="evenodd" class="s40" d="m118.5 121.5q-1.2 2.9-0.5 6 0.5-1 1-2 1 1.1 2.5 1-10.3 13.5-19 28-2.8 0.3-4 3 0.6-1.9-2-3 8.7-18.1 22-33z"/>
	</g>
	<g id="Layer">
		<path id="Layer" fill-rule="evenodd" class="s41" d="m263.5 115.5q0 22 0 44 0.4 3-1 5.5 3.6 0.4 2 3 1.1 3.2 3.5 1.5 0.8 0.8 1.5 1.5-4.4 0.2-4 4.5-5.2 0.1-1-4.5-5.2-3.6-8-7.5-0.5-32 1-64 0.4 1.6 0.5 4 1.1-3.2 2.5-0.5-5.8 5.2 1 10 0.6 4.3-2 8.5 2.1 2-1 2.5 2 1.5 0 3 1.9 2.7 3.5-0.5 0.3-5.8 1.5-11z"/>
	</g>
	<g id="Layer">
		<path id="Layer" fill-rule="evenodd" class="s42" d="m247.5 149.5q-0.5 3.8 1 7 0 0.5 0 1-2.3 0.9-3 3.5 3.3 1.4-0.5 3.5-2.7-6.3-5.5-12 0-0.5 0-1 1.4-0.7 2.5-2 0.3-4.4 1.5-8.5-2.8-7 0-13.5 1.4 1.7 2.5 0 0.3 11.3 1.5 22z"/>
	</g>
	<g id="Layer">
		<path id="Layer" fill-rule="evenodd" class="s43" d="m247.5 98.5q1 22.6 2 45.5-1.2 6.3-1 12.5-1.5-3.2-1-7 0-25.5 0-51z"/>
	</g>
	<g id="Layer">
		<path id="Layer" fill-rule="evenodd" class="s44" d="m292.5 129.5q0 2 0 4-1.5 0-3 0 1 5 0 8.5-0.5 0.3-1 0.5-1.1-1.3-1.5-3-0.5 2.7-2 1-2.5 0.8-4 3 0.2-5.5 1.5-11 1.2-2.3 1-5 1.1-3.6 2-7.5 2.2-0.9 3 1.5 0.1 2.9-0.5 6 1.4-1.2 2-3 0.5 0.5 1 1 0.5-2.5 1-5 0.7 4.5 0.5 9z"/>
	</g>
	<g id="Layer">
		<path id="Layer" fill-rule="evenodd" class="s45" d="m326.5 130.5q1.6 0.2 2 2 0 9.6-6 17-2.4-6.3-1.5-13 3-2.8 5.5-6z"/>
	</g>
	<g id="Layer">
		<path id="Layer" fill-rule="evenodd" class="s46" d="m381.5 132.5q5.6 5.1 9 12 1.2 2.2 0 4-3.3 0.2-7-1-6-6.9-12-14 4-0.1 6.5 3 0.5-0.5 1-1 0.5 1.5 1 3 1.8-3 1.5-6z"/>
	</g>
	<g id="Layer">
		<path id="Layer" fill-rule="evenodd" class="s47" d="m175.5 130.5q11.2 6.7 5 19-2.5-1.9-3.5-5-1.7-6.9-1.5-14z"/>
	</g>
	<g id="Layer">
		<path id="Layer" fill-rule="evenodd" class="s48" d="m124.5 130.5q3.9-0.3 5 3.5-3.8 1.4-3 5.5-2.4-0.2-3.5 2-0.5-1.5-1-3-0.6 3.3 1.5 6-1.5 0-3 0 0 1.5 0 3-1.6-0.2-3 0.5 1.4 1.1 0.5 2.5-1.1-1.7-2.5 0-1 3-2 6-1.5-0.8-3-1.5 2.9-3.3 2-7 4.4-1 2-4.5 3.9-7.4 10-13z"/>
	</g>
	<g id="Layer">
		<path id="Layer" fill-rule="evenodd" class="s49" d="m278.5 142.5q0 1 1 1 0 1-1 1-2-1 0-2z"/>
	</g>
	<g id="Layer">
		<path id="Layer" fill-rule="evenodd" class="s50" d="m281.5 132.5q0.5 0 1 0-1.3 5.5-1.5 11 1.5-2.2 4-3 1.5 1.7 2-1 0.4 1.7 1.5 3 0.5-0.3 1-0.5 1-3.5 0-8.5 1.5 0 3 0 0.2 4.5-0.5 9-4.1 4.8-7.5 10-1.4 2.1-1 5-6-0.9-3-6.5-0.5-0.3-1-0.5-1 1.7-2 3 0-2 0-4 1.4-1.6 1-4 0-0.5 0-1 1 0 1-1-1 0-1-1 1.3-3.4 0.5-7-0.4 1.4-1.5 2-1.7-2-4-3.5 4-2.1 8-1.5z"/>
	</g>
	<g id="Layer">
		<path id="Layer" fill-rule="evenodd" class="s51" d="m263.5 115.5q0.5 0 1 0-0.5 10.3 1 20 0 4.5 0 9 0 6 0 12-1 1.5-2 3 0-22 0-44z"/>
	</g>
	<g id="Layer">
		<path id="Layer" fill-rule="evenodd" class="s52" d="m356.5 125.5q22.1 19.6 35 46-0.2 1.6-2 2-2.7-2.4-5-5-14.4-21.7-33-40 2.6-0.2 5 1 1.2-1.8 0-4z"/>
	</g>
	<g id="Layer">
		<path id="Layer" fill-rule="evenodd" class="s53" d="m201.5 122.5q1.9 0.8 2.5 3 1 8.6 2.5 17-0.1 3.3-2 6-1.4-1.7-2.5 0-0.7-1.6 0.5-3-0.5-1.8-1.5 0-2.7-2.7-0.5-6-1.5-2.1-3-4 0-1 0-2 0.1-6.4 1-12 1.4 0.9 3 1z"/>
	</g>
	<g id="Layer">
		<path id="Layer" fill-rule="evenodd" class="s54" d="m215.5 107.5q0.9 0.4 1 1.5-4.6 12.4-2 25.5 0.9-0.3 1.5-1 1.7 1.5 1.5 3-1.5 12.4-1 25 0 1 0 2 0.2 11-0.5 22-2.8 1-4.5-2 1.3 0.2 2-1-0.4-5.8 0-12 1.2 3.7 1.5 8 1-20.5 0-41-1-1-2-2-0.3-11.9-1.5-23.5 1.2-3 4-4.5z"/>
	</g>
	<g id="Layer">
		<path id="Layer" fill-rule="evenodd" class="s55" d="m197.5 150.5q0 4.5 0 9-0.4 2.9 1 5 1.1 3.9 1 8-0.3 1.5 1 2 0 2 0 4 0.2 4.1-3.5 6-1.7-2.2-2-5-0.4 1.4-1.5 2-0.6-1.1-2-1.5 1.4-4.1 1-8.5 0.5-3.8-1-7 0-1.5 0-3 0.1-12.5-1-25 2.4 0.2 3.5-2-0.6 8.4 3.5 16z"/>
	</g>
	<g id="Layer">
		<path id="Layer" fill-rule="evenodd" class="s56" d="m232.5 141.5q3.3 4.1 1 9 0.8 6.4 3 12-0.3 1.5 1 2 0 1 1 1 0 0.5 0 1 0 2.5 0 5-4.6 0.1-1-1.5-1.8-0.7-2.5-2.5-1.2 2-3.5 2.5 3 2 6 4-1 1-2 2 1.7 1.1 0 2.5-1.5 1-3 2 1.7 1.8 0 3-5.8-4.2-2-10-3.1-1.5-1-4-3.7-4.4 0-8.5-1-0.5-2-1 3.5-5.3 1-11.5 0.2-3.2 3-4.5-6.1-2.9 1-2.5z"/>
	</g>
	<g id="Layer">
		<path id="Layer" fill-rule="evenodd" class="s57" d="m139.5 134.5q1.7 2.4-2 2.5 2.3 1.5 5 1.5-17.5 20-29 44-1.6-2.6-5-2 10.9-26.4 31-46z"/>
	</g>
	<g id="Layer">
		<path id="Layer" fill-rule="evenodd" class="s58" d="m313.5 140.5q-2.2 3.6-3 8 2.4 5.7-3 9-1.5-5.9-1-12 0-2 0-4 1.7-6.7 0.5-14-1.5 3.4-1.5 7-0.4 9.3-2 18 0.1-1.5-1-2.5-3.1-0.5-6-1.5 1.1-12.6 3.5-25 2.5-2.5 5-5 4.5 4.5 9 9 0.8 6.5-0.5 13z"/>
	</g>
	<g id="Layer">
		<path id="Layer" fill-rule="evenodd" class="s59" d="m306.5 141.5q0.5-3.8-1-7 0-3.6 1.5-7 1.2 7.3-0.5 14z"/>
	</g>
	<g id="Layer">
		<path id="Layer" fill-rule="evenodd" class="s60" d="m197.5 135.5q1.5 1.9 3 4-2.2 3.3 0.5 6 1-1.8 1.5 0-1.2 1.4-0.5 3 1.1-1.7 2.5 0 1.9-2.7 2-6 3 10 6 20-1.2 1.1-1.5 3-0.3-3.3-1.5-6 1.7-2.2-1.5-3 0.4-5.1-4.5-5-1.2 6.9-1 14 0 3 0 6-0.5 0-1 0-0.9-5.5-1-11 0.4-2.9-1-5-1.3-10-2-20z"/>
	</g>
	<g id="Layer">
		<path id="Layer" fill-rule="evenodd" class="s61" d="m224.5 147.5q1.4 1.1 1 3-1.5 6.2-1 13-1.5-6.7-1-14 1.3-0.5 1-2z"/>
	</g>
	<g id="Layer">
		<path id="Layer" fill-rule="evenodd" class="s62" d="m175.5 162.5q-1.6-1.7-2.5-4-0.5 0.5-1 1-2.1-3.9-3.5 0.5 0.9 3.2 1.5 6.5 0.5-0.5 1-1 2.3 2.7 0.5 5.5 1.2 4.1 1.5 8.5 1.4 2.9 4.5 3-0.1 1.5 1 2.5-1.9 0.6-2 2.5-0.5 0-1 0-1 0-1-1-0.9 0.2-1.5 1-1.1-2.2-3.5-2-0.1-1.9-2-2.5 1.9-0.6 2-2.5 2-1 0-2-3.4-19.5-5.5-39 2.3-2.3 4.5-4.5 1.2-1 2 0.5 2.7 13.5 5 27z"/>
	</g>
	<g id="Layer">
		<path id="Layer" fill-rule="evenodd" class="s63" d="m166.5 171.5q-2-2.5-4-5 3-6.7-4-6.5 1.5 6.6 1 13.5-2.3-9.7-4-20 0.8-4.8 5-7 3.7 12.3 6 25z"/>
	</g>
	<g id="Layer">
		<path id="Layer" fill-rule="evenodd" class="s64" d="m184.5 159.5q-1-2 0 0z"/>
	</g>
	<g id="Layer">
		<path id="Layer" fill-rule="evenodd" class="s65" d="m342.5 180.5q-2.6-1.9-1-4.5-2.7-0.5-1-2-3.8-1.4-3-5.5 1.8-11.2 5.5-22 2.6 2.1 4 5-1.9 14.5-4.5 29z"/>
	</g>
	<g id="Layer">
		<path id="Layer" fill-rule="evenodd" class="s64" d="m184.5 159.5q1 0 1 1-0.5-0.5-1-1z"/>
	</g>
	<g id="Layer">
		<path id="Layer" fill-rule="evenodd" class="s66" d="m199.5 155.5q1.4 2.1 1 5-1.8 1.5-2 4-1.4-2.1-1-5 2.5-1 2-4z"/>
	</g>
	<g id="Layer">
		<path id="Layer" fill-rule="evenodd" class="s67" d="m274.5 152.5q0 4 0 8-1.6-0.1-3-1-0.5 0.5-1 1 1.3 1.1 3 1.5-4.4 0.3-8.5 1.5 0.3-3.4 0.5-7 0-6 0-12 2.2-1.3 2.5-4 3.1 3.9 4 9 0.5-1 1-2 0.3 2.8 1.5 5z"/>
	</g>
	<g id="Layer">
		<path id="Layer" fill-rule="evenodd" class="s64" d="m185.5 160.5q2 1 0 0z"/>
	</g>
	<g id="Layer">
		<path id="Layer" fill-rule="evenodd" class="s68" d="m209.5 159.5q-1.1 2.1-2 4.5 3.9 7 1.5 14.5-1.1-0.9-2.5-1.5 1.7-4.1 0.5-8.5-1 1.3-2.5 2-1-2.7-2-5-0.2-7.1 1-14 4.9-0.1 4.5 5 3.2 0.8 1.5 3z"/>
	</g>
	<g id="Layer">
		<path id="Layer" fill-rule="evenodd" class="s69" d="m224.5 138.5q-1.5 5.2-1 11-0.5 7.3 1 14 0 5 0 10 0 0.5 0 1-1.2-2.2-1.5-5-2.5 1.2-0.5 3-1.2 1.8-2.5 0-0.3-4.1-1.5-8-1-0.5-2-1 0-1 0-2 0.9 0.2 1.5 1 3-2.8 0-2-1.2-4.6 0.5-9 1 0.8 1.5 2 1-4 2 0 0.7-11.5 1.5-23 1.6-0.2 3 0.5-2.7 3.2-2 7.5z"/>
	</g>
	<g id="Layer">
		<path id="Layer" fill-rule="evenodd" class="s70" d="m239.5 91.5q0 30 0 60 0 0.5 0 1 0 5.5 0 11 0 1 1 1 0.3 1.5-1 2-0.5 0-1 0 0-0.5 0-1-1 0-1-1 0.9-5.5 1-11 0-9.5 0-19-0.5-21.8 1-43z"/>
	</g>
	<g id="Layer">
		<path id="Layer" fill-rule="evenodd" class="s71" d="m336.5 159.5q-2.4 2.4-3.5 6-1-1.8-1.5 0 0.1 7 1 14 0 0.5 0 1-0.8 2.6-3 4-2.2-5.9-7-2-0.9-0.6-1-2 0.7-4.8 2-9-0.2 1.6 0.5 3 5.7-19.7 8.5-40 6 1 7 7-1.2 9.1-3 18z"/>
	</g>
	<g id="Layer">
		<path id="Layer" fill-rule="evenodd" class="s72" d="m390.5 144.5q10.3 12.6 16 28-1.7 3.7-6 4-8.1-14.7-17-29 3.7 1.2 7 1 1.2-1.8 0-4z"/>
	</g>
	<g id="Layer">
		<path id="Layer" fill-rule="evenodd" class="s73" d="m96.5 154.5q2.6 1.1 2 3 1.2-2.7 4-3-9.8 17.8-16 37 0.5-3.6-3-4.5 2.2-0.6 1.5-2.5-1 1.1-2.5 1 4.8-13.1 10.5-26 1-3.1 3.5-5z"/>
	</g>
	<g id="Layer">
		<path id="Layer" fill-rule="evenodd" class="s74" d="m288.5 161.5q0.1 2.2-1 4-1.5-2.2 1-4z"/>
	</g>
	<g id="Layer">
		<path id="Layer" fill-rule="evenodd" class="s75" d="m180.5 157.5q-0.9 0.2-1.5 1-0.7 3.5-0.5 7-1.7-3.7-0.5-8 1.5-1.9 2.5 0z"/>
	</g>
	<g id="Layer">
		<path id="Layer" fill-rule="evenodd" class="s76" d="m275.5 143.5q0.7 2.1 3 2 0.4 2.4-1 4 0.2-1.6-0.5-3-0.5 0.5-1 1-1.2 10.3 0.5 20-1.2 5.9-1 12-1.5-9.2-1-19 0-4 0-8-0.5-4.8 1-9z"/>
	</g>
	<g id="Layer">
		<path id="Layer" fill-rule="evenodd" class="s77" d="m296.5 148.5q2.9 1 6 1.5 1.1 1 1 2.5 0 2 0 4-2.5 2.5-4 6-2.4 1.4-5 2.5 5.2 1.6 0.5 3.5-1.7 2.8-1.5 6 1.5 0 3 0-3.7 1.5-8 1-0.7 4.5-1.5 9-0.6 0.8-1.5 1-0.2-6.1 1-12 1.4-1.6 1-4 0-2 0-4 1.1-1.8 1-4 1.7-5.4 6.5-9 0.6-2.1 1.5-4z"/>
	</g>
	<g id="Layer">
		<path id="Layer" fill-rule="evenodd" class="s78" d="m191.5 164.5q1.5 3.2 1 7-1.2-0.4-2-1.5 1.4-2.5 1-5.5z"/>
	</g>
	<g id="Layer">
		<path id="Layer" fill-rule="evenodd" class="s79" d="m239.5 152.5q2.8 5.7 5.5 12 3.8-2.1 0.5-3.5 0.7-2.6 3-3.5 1 0 1 1 0.2 13-0.5 26-0.3-7.1-1.5-14-1.1 1.3-1.5 3-0.5-0.5-1-1-1.2 3.9 0.5 7.5-1.4 0.6-2 2 1.5 0.6 2 2.5-0.3 2.3-2 4 3.7 1.6 0 2.5 1.5 1.6 0.5 3.5-0.4-1.4-1.5-2 0.5-13.8-1-27 0-1-1-1-1 0-1-1 0-5.5 0-11z"/>
	</g>
	<g id="Layer">
		<path id="Layer" fill-rule="evenodd" class="s80" d="m212.5 162.5q1.3-0.2 2 1-1.3 2.9-1 6-1.5-3.2-1-7z"/>
	</g>
	<g id="Layer">
		<path id="Layer" fill-rule="evenodd" class="s81" d="m265.5 156.5q-0.2 3.6-0.5 7 4.1-1.2 8.5-1.5-1.7-0.4-3-1.5 0.5-0.5 1-1 1.4 0.9 3 1-0.5 9.8 1 19-0.2 2.4 2 3.5-1.8 0.7-2.5 2.5-0.3-4.4-2.5-8.5 0.5-0.5 1-1-2.1-0.7-3.5-2.5-0.6 0.3-0.5 1-0.5 0-1 0 0.1-0.7-0.5-1-1.1 1.3-2.5 2-0.4-4.3 4-4.5-0.8-0.8-1.5-1.5-2.4 1.7-3.5-1.5 1.6-2.6-2-3 1.4-2.5 1-5.5 1-1.5 2-3z"/>
	</g>
	<g id="Layer">
		<path id="Layer" fill-rule="evenodd" class="s82" d="m283.5 157.5q0 14.5 0 29-1.2-2.2-1.5-5-0.5 0.5-1 1-0.8-5.6-3.5-11.5 0.5-8.6 0-17.5 1-1.3 2-3 0.5 0.3 1 0.5-3 5.6 3 6.5z"/>
	</g>
	<g id="Layer">
		<path id="Layer" fill-rule="evenodd" class="s71" d="m180.5 157.5q1.9 2.9 5 5 2.5 15 5 30-1.8-1.1-4-1 0.3 2.8-2 2.5 2.2-3.4-1-5.5 6.2-4.9-1-9 1.5-1.3 0-2-2.7 5.7-4-1-1.2-1.3-3-1 0.2-2.5-0.5-5-1.5 1.8-1.5-1 1.7-2.7 2-6 1.7 3.7 2.5 8 0.7-3 0.5-6-0.2-3.5 0.5-7 0.6-0.8 1.5-1z"/>
	</g>
	<g id="Layer">
		<path id="Layer" fill-rule="evenodd" class="s83" d="m287.5 169.5q0.4 2.4-1 4-1.5-2.2 1-4z"/>
	</g>
	<g id="Layer">
		<path id="Layer" fill-rule="evenodd" class="s84" d="m201.5 171.5q0.5 0 1 0 0 1.5 0 3-1 0-2 0-1.3-0.5-1-2 2.1 2.3 2-1z"/>
	</g>
	<g id="Layer">
		<path id="Layer" fill-rule="evenodd" class="s85" d="m225.5 159.5q0.5 0 1 0 0 9.5 0 19-0.5 0-1 0-0.5-2-1-4 0-0.5 0-1 1.5-6.7 1-14z"/>
	</g>
	<g id="Layer">
		<path id="Layer" fill-rule="evenodd" class="s86" d="m209.5 159.5q1.2 2.7 1.5 6 0.3-1.9 1.5-3-0.5 3.8 1 7 0 0.5 0 1-0.4 6.2 0 12-0.7 1.2-2 1-1.6 4.4-5 1.5 1.8-1.8 0-3.5-1.5-1.9-3 0-1.5-3.2-1-7 0-1.5 0-3 0-3 0-6 1 2.3 2 5 1.5-0.7 2.5-2 1.2 4.4-0.5 8.5 1.4 0.6 2.5 1.5 2.4-7.5-1.5-14.5 0.9-2.4 2-4.5z"/>
	</g>
	<g id="Layer">
		<path id="Layer" fill-rule="evenodd" class="s87" d="m256.5 163.5q2.8 3.9 8 7.5-4.2 4.6 1 4.5 1.4-0.7 2.5-2 0.6 0.3 0.5 1-1.2 4.9-1 10 0 0.5 0 1-1.5 5.2-1 11-1.8-0.8-3.5-1-1-1.9 0.5-3.5-2.3-1.5-5-1.5-2.2 6.8-3 14 0.1 1.4 1 2-0.2 1.1 0.5 2 1.1-2.6 3.5-2.5-0.5 0.5-1 1 1.6 1.1 2 3-1.1 3.5 0 7.5-1.5 10.7-1 22-1.1 0.2-2-0.5 2-7.7 0-15.5-2.1 5.3-5 10 0-3.5 0-7 0-4 0-8-0.1-11 1-22 1.5-13.2 1-27 0-0.5 0-1 1.4-2.1 1-5z"/>
	</g>
	<g id="Layer">
		<path id="Layer" fill-rule="evenodd" class="s88" d="m323.5 171.5q-1.3 4.2-2 9 0.1 1.4 1 2-1 1.7-1 3-1.1-1.3-1.5-3-1 3.2-2.5 6-1.8-1.2-3-3 1.1-11.6 3.5-23 3-3.9 6.5-5 0.5 1 1 2-1.2 6-2 12z"/>
	</g>
	<g id="Layer">
		<path id="Layer" fill-rule="evenodd" class="s89" d="m114.5 143.5q2.4 3.5-2 4.5 0.9 3.7-2 7 1.5 0.8 3 1.5 1-3 2-6 1.4-1.7 2.5 0 0.9-1.4-0.5-2.5 1.4-0.7 3-0.5 0-1.5 0-3 1.5 0 3 0-25.6 35.2-33 78 0.4-2.9-2-4.5 4.2-7.1-3-2.5-1.2 3.4-1.5 7-0.6 0.8-1.5 1 5.8-44.3 32-80z"/>
	</g>
	<g id="Layer">
		<path id="Layer" fill-rule="evenodd" class="s5" d="m175.5 162.5q0 0.5 0 1-0.3 3.3-2 6 0 2.8 1.5 1 0.7 2.5 0.5 5 1.8-0.3 3 1 1.3 6.7 4 1 1.5 0.7 0 2 7.2 4.1 1 9-3.7-2.4-6-6-3.1-0.1-4.5-3-0.3-4.4-1.5-8.5 1.8-2.8-0.5-5.5-0.5 0.5-1 1-0.6-3.3-1.5-6.5 1.4-4.4 3.5-0.5 0.5-0.5 1-1 0.9 2.3 2.5 4z"/>
	</g>
	<g id="Layer">
		<path id="Layer" fill-rule="evenodd" class="s90" d="m241.5 165.5q1.5 13.2 1 27 0 1.5 0 3 3.5 0.4 6-2 0.5 1.3 1 2.5-0.9 2.4-2 4.5-1.4-1.2-3-0.5 1.6 2.1 0.5 4.5-1.4-1.2-2-3-0.4 1.4-1.5 2-1.9-0.4-5-1 0.3-10.1-4-19 1.7-1.2 0-3 1.5-1 3-2 1.7-1.4 0-2.5 1-1 2-2-3-2-6-4 2.3-0.5 3.5-2.5 0.7 1.8 2.5 2.5-3.6 1.6 1 1.5 0-2.5 0-5 0.5 0 1 0 0.5 12 1.5 24 0.7-12.5 0.5-25z"/>
	</g>
	<g id="Layer">
		<path id="Layer" fill-rule="evenodd" class="s91" d="m336.5 159.5q-1.9 9.5-2.5 19 1.3-5.3 3.5-10-0.8 4.1 3 5.5-1.7 1.5 1 2-1.6 2.6 1 4.5 0.4 3.4-1 6 0.5-3.4-2-5.5-3.5 0.2-7 1.5-0.2 2.4 2 3.5-0.9 1.1-1.5 2.5-1-2-3-3-3.2 2.8-4 7-1.1-5.3 3.5-8 2.2-1.4 3-4 2-0.5 0-1-0.9-7-1-14 0.5-1.8 1.5 0 1.1-3.6 3.5-6z"/>
	</g>
	<g id="Layer">
		<path id="Layer" fill-rule="evenodd" class="s13" d="m166.5 171.5q1.2 3.7 3 7 0 1 0 2-0.1 1.9-2 2.5 1.9 0.6 2 2.5-1.1-0.2-2 0.5 1.5 1.5 3 3-2 1 0 2-1.4 0.7-3 0.5 0.2-5.1-5-4-2.8-6.5-3-14 0.5-6.9-1-13.5 7-0.2 4 6.5 2 2.5 4 5z"/>
	</g>
	<g id="Layer">
		<path id="Layer" fill-rule="evenodd" class="s92" d="m249.5 158.5q1.5 18.2 1 37-0.5 5.3 1 10 0 6 0 12 0 5.5 0 11 0.5 3.6-1 7-1.6-3.2 0-7.5-2-2.4-2-5.5-2-0.3-3.5 1-0.2-2.5 1-5 0.5 1.2 1.5 2 0.1-1.3 1-3-2 0.2-4-2 0-2.3-1-4.5 2.3-5.2 5-10-0.3-0.6-1-0.5 1.1-2.1 2-4.5-0.5-1.3-1-2.5-2.5 2.4-6 2 0-1.5 0-3 1.1 0.6 1.5 2 1-1.9-0.5-3.5 3.7-0.9 0-2.5 1.7-1.7 2-4-0.5-1.9-2-2.5 0.6-1.4 2-2-1.7-3.6-0.5-7.5 0.5 0.5 1 1 0.4-1.7 1.5-3 1.2 6.9 1.5 14 0.7-13 0.5-26z"/>
	</g>
	<g id="Layer">
		<path id="Layer" fill-rule="evenodd" class="s93" d="m216.5 163.5q1 0.5 2 1 1.2 3.9 1.5 8 1.3 1.8 2.5 0-2-1.8 0.5-3 0.3 2.8 1.5 5 0.5 2 1 4 0 4.5 0 9 0.1 4.4 2 8 0 2 0 4-1.2-1.1-1.5-3-0.7 1.4-0.5 3-4.6 0.4-2-4 0.2-2.7-2-4-3.9 3.1 0 6.5-1.1 2.1-1.5 4.5-0.5-1.5-1-3-0.5 0.5-1 1-1.7-1.9-4-3 0.1 1.9-0.5 3-1.9-2.8 0-5.5-1.4-0.6-2.5-1.5 0.3 3.1-0.5 6-1-1.7-2-3-0.5-4.5-4-7 0.4-2.9-1-5 0-1.5 0-3 1.5-1.9 3 0 1.8 1.7 0 3.5 3.4 2.9 5-1.5 1.7 3 4.5 2 0.7-11 0.5-22z"/>
	</g>
	<g id="Layer">
		<path id="Layer" fill-rule="evenodd" class="s94" d="m277.5 153.5q0.5 8.9 0 17.5 2.7 5.9 3.5 11.5 0.5-0.5 1-1 0.3 2.8 1.5 5-0.5 3.8 1 7-1.5 2.2 1 4-3.6 0.3-4 5 0 1 0 2-2.1 2-3.5-1-1 5.2-1.5 0.5-0.1-2.6 2-4-1.3-2.5 1.5-0.5 0.7-1.8 2.5-2.5-0.7-1.5-0.5-3.5-1.4-0.8-2.5-2 1.4-1.9 0.5-4-0.7 2.1-2.5 3.5 0.5 0.5 1 1-4.9 0.7-5 5.5-2.6 1.6-2 5 0 1 0 2-1.5 8.7-1 18-0.9 0.2-1.5 1 0.6-6.3 0.5-12.5-0.5-1.5-2-1.5 1.3-3.3 1-7 0-4.5 0-9 0-0.5 0-1 1.5-8.7 1-18-0.1-0.7 0.5-1 1.4 1.8 3.5 2.5-0.5 0.5-1 1 2.2 4.1 2.5 8.5 0.7-1.8 2.5-2.5-2.2-1.1-2-3.5-0.2-6.1 1-12-0.5-7.3 1-14z"/>
	</g>
	<g id="Layer">
		<path id="Layer" fill-rule="evenodd" class="s7" d="m232.5 141.5q-7.1-0.4-1 2.5-2.8 1.3-3 4.5 2.5 6.2-1 11.5 1 0.5 2 1-3.7 4.1 0 8.5-2.1 2.5 1 4-3.8 5.8 2 10 4.3 8.9 4 19 3.1 0.6 5 1 0.2 1.1-0.5 2-2.1-1.6-4.5-0.5 1.7 7.5-1 15.5 4.9 10.4 6-1 1.5 8.2 1 17-1.4 1.1-1 3-3.8-1.7-3-5-1.1 2.2-2 4.5-1.9 0.7-2.5-1.5-0.4 1.4-1.5 2 1.2-19.5 1-39-0.3-13.7-2 0 0.5 7.8-1 15 0.5-10.7-2-21 0.3-4.6 4-7-0.5-1.2-1.5-2-1 2.7-3.5 4 0.5-4.3-1-8 0-1.5 0-3 0-9.5 0-19 0.4-7.9 0-15.5 1.1-4.1 4.5-6.5 1.4 1.8 1.5 4z"/>
	</g>
	<g id="Layer">
		<path id="Layer" fill-rule="evenodd" class="s95" d="m268.5 174.5q0.5 0 1 0 0.5 9.3-1 18 0.5-4.3-1-8-0.2-5.1 1-10z"/>
	</g>
	<g id="Layer">
		<path id="Layer" fill-rule="evenodd" class="s96" d="m162.5 188.5q0 1 1 1 0 1 1 1 0 1 1 1 0 1 1 1 0 1 1 1 0 1 0 2-4.7-1.4-9-2.5 1.3 2.4 4 3-1.1 2.2-2.5 0.5-0.7 1.9-0.5 4-1.6-8.1-6.5-15-2.9-10.9-3-22 1-1.3 2.5-2 3.4 10.7 4.5 22 2 4 4 8 0.3-1.9 1.5-3z"/>
	</g>
	<g id="Layer">
		<path id="Layer" fill-rule="evenodd" class="s97" d="m200.5 178.5q1.7 4.7 2.5 10 0.7-1.9 0.5-4 1.4 2.1 1 5 3.5 2.5 4 7 0 1.5 0 3-1.5 8.2-1 17-1.5-10.2-1-21-1.5 0-3 0 0.6 3.7-2 2 2.1-1.7-0.5-3-1.5 0.5-3 1-0.4-1.7-1.5-3-1.5 5.4-1 11-1.5-2.7-4.5-4-1.6-3.6-0.5-7 2.2 3.1 3.5 7 0.3-0.8 0.5-1.5-0.3-8-1-16.5 1.1-0.6 1.5-2 0.3 2.8 2 5 3.7-1.9 3.5-6z"/>
	</g>
	<g id="Layer">
		<path id="Layer" fill-rule="evenodd" class="s98" d="m313.5 140.5q-0.9 23.6-4 47-1.5 3.2-1 7-0.2 3.5 0.5 7 0.3-1.9 1.5-3 0.9 4.6 1 9-2.5 0-5 0 0.5 5.3-1 10 0.4-2.9-1-5-0.4-7.4 3-13.5-0.9-3 0-5.5-1.9-3.9-3-8-1.4 3.6-4 6.5 2.8 1.6 0.5 2.5-1.4-0.6-2-2-0.5 1-1 2-0.3 9.3-1.5 18 0-4.5 0-9 0.4-2.4-1-4 0.4-6.4-1-12.5 1-2.4 2.5-4.5 0.5 1.5 1 3 0.3-3.3 1.5-6-0.2 2.1 0.5 4 2-9.9 1-20-0.3 5.8-1.5 11 0-2 0-4-1.5 0-3 0 0 2 0 4-1.5 0-3 0-0.2-3.2 1.5-6 4.7-1.9-0.5-3.5 2.6-1.1 5-2.5 1.5-3.5 4-6 2.3-5.3 3-11-0.5 6.1 1 12 5.4-3.3 3-9 0.8-4.4 3-8z"/>
	</g>
	<g id="Layer">
		<path id="Layer" fill-rule="evenodd" class="s98" d="m406.5 172.5q4.6 7.4 7 16-2.5 0.4-4.5 2 0.1 5 0.5 10-4.5-11.9-9-24 4.3-0.3 6-4z"/>
	</g>
	<g id="Layer">
		<path id="Layer" fill-rule="evenodd" class="s99" d="m125.5 181.5q2.5 1.8 5 4-2 2.5-4 5-2-2.5-4-5 2.7-1.2 3-4z"/>
	</g>
	<g id="Layer">
		<path id="Layer" fill-rule="evenodd" class="s100" d="m384.5 168.5q2.3 2.6 5 5 1.8-0.4 2-2 6.7 9.5 10 21-2.4-1.5-4 1.5 3.3 5.7 3 12.5-7.1-19.3-16-38z"/>
	</g>
	<g id="Layer">
		<path id="Layer" fill-rule="evenodd" class="s101" d="m108.5 180.5q3.4-0.6 5 2-13.2 29.8-15 62 0.5-10.9-1-21.5 1.7-0.4 3-1.5-2.4-0.4-5 0 3.2-21.7 13-41z"/>
	</g>
	<g id="Layer">
		<path id="Layer" fill-rule="evenodd" class="s102" d="m284.5 152.5q-0.5 16.8 1 33 0.1 4.1-1 8-1.5-3.2-1-7 0-14.5 0-29-0.4-2.9 1-5z"/>
	</g>
	<g id="Layer">
		<path id="Layer" fill-rule="evenodd" class="s103" d="m377.5 183.5q2.9 1.9 5 5-2.5 2.2-4.5 5-1.5-3.2-4.5-5 2.6-2.1 4-5z"/>
	</g>
	<g id="Layer">
		<path id="Layer" fill-rule="evenodd" class="s104" d="m169.5 185.5q2.4-0.2 3.5 2 0.6-0.8 1.5-1 0 1 1 1 0.5 2 1 0 1.3 4.2 2 9-0.1 1.4-1 2-1.8 0.7-2 3 0.8 3.2 1 5.5-2.5 2.1-2 5.5-1.7-6.8-3.5-14-0.6-2.2-2.5-3 0.3-1.5-1-2-1 0-1-1-1 0-1-1-1 0-1-1-1 0-1-1-1 0-1-1 0-0.5 0-1 5.2-1.1 5 4 1.6 0.2 3-0.5-2-1 0-2-1.5-1.5-3-3 0.9-0.7 2-0.5z"/>
	</g>
	<g id="Layer">
		<path id="Layer" fill-rule="evenodd" class="s56" d="m266.5 196.5q-0.7 3.9 2 6 0.3 3.7-1 7-2.4 2.1-4-1 1-4.6 0.5-10-1.6 1-3.5 1.5 1.3 1.5 1 3.5-3.6-0.3-5 3-0.9-0.6-1-2 0.8-7.2 3-14 2.7 0 5 1.5-1.5 1.6-0.5 3.5 1.7 0.2 3.5 1z"/>
	</g>
	<g id="Layer">
		<path id="Layer" fill-rule="evenodd" class="s105" d="m299.5 174.5q0 2.5 0 5-1.2 2.7-1.5 6-0.5-1.5-1-3-1.5 2.1-2.5 4.5 1.4 6.1 1 12.5-1.5 3.2-1 7 0 0.5 0 1-0.5 0-1 0 0.2-2.5-0.5-5-1 1.8-1.5 0 1-1.5 2-3 0.2-3.6-1.5-7-0.5-0.5-1-1-0.5 1.5-1 3-2-5.4-5.5-1 1.1-3.9 1-8 0.9-0.2 1.5-1 0.8-4.5 1.5-9 4.3 0.5 8-1 0-2 0-4 1.5 0 3 0 0 2 0 4z"/>
	</g>
	<g id="Layer">
		<path id="Layer" fill-rule="evenodd" class="s56" d="m329.5 184.5q-4.6 2.7-3.5 8 0.8-4.2 4-7 2 1 3 3 0.6-1.4 1.5-2.5-2.2-1.1-2-3.5 3.5-1.3 7-1.5 2.5 2.1 2 5.5-1 0.5-2 1-1.2-1.4-2.5-3-0.9 1.4 0.5 2.5-2.6 2.3-6 3 3.8 2.1-1 3-1.7 4-5 6.5 0.1-1.5-1-2.5 5.6-1.6-1-1.5 0 1.5 0 3-2.5 0.2-5-0.5 1.4-0.7 3-0.5 0-1.5 0-3-9.9-1.5 0-3-2.1-2 1-2.5-2.8-1.1-4.5 1.5-0.7-0.9-0.5-2 1.5-2.8 2.5-6 0.4 1.7 1.5 3 0-1.3 1-3 4.8-3.9 7 2z"/>
	</g>
	<g id="Layer">
		<path id="Layer" fill-rule="evenodd" class="s106" d="m226.5 181.5q1.5 3.7 1 8 0 3 0 6-1.9-3.6-2-8 1.4-2.6 1-6z"/>
	</g>
	<g id="Layer">
		<path id="Layer" fill-rule="evenodd" class="s107" d="m230.5 215.5q0 1 0 2-1.2 2.7-1.5 6-2-4-4-8-1.4 1.2-2 3-2.3-3.5-0.5-7 1.1-0.6 1.5-2 0.5 1.5 1 3 0.8-5.1 4.5-8.5-1.6-2-2-4.5 0-2 0-4 0-3 0-6 2.5-1.3 3.5-4 1 0.8 1.5 2-3.7 2.4-4 7 2.5 10.3 2 21z"/>
	</g>
	<g id="Layer">
		<path id="Layer" fill-rule="evenodd" class="s108" d="m255.5 169.5q0.5 13.8-1 27-1.1-13.7 1-27z"/>
	</g>
	<g id="Layer">
		<path id="Layer" fill-rule="evenodd" class="s109" d="m309.5 187.5q-0.2 2.6 1 5-0.5 1.5-2 2-0.5-3.8 1-7z"/>
	</g>
	<g id="Layer">
		<path id="Layer" fill-rule="evenodd" class="s110" d="m267.5 185.5q-0.5 4.3 1 8 0 4.5 0 9-2.7-2.1-2-6-0.5-5.8 1-11z"/>
	</g>
	<g id="Layer">
		<path id="Layer" fill-rule="evenodd" class="s111" d="m341.5 213.5q0.3-2.5-1-4.5 3.6-3.7 0-7 1.1-2.2 2-4.5-0.7-1.5-2 0-2.5-1.8-1-4-1.2-1.3-3-1 0-0.5 0-1 1 0 1-1 1 0 1-1 0.5-1 1-2 1-0.5 2-1-0.2 2.5 0.5 5 1.5-3 3-6 2.8-12.5 6-25 1.9 2.6 3.5 5.5-1.7 15.4-9.5 28.5-1.5 9.7-3.5 19z"/>
	</g>
	<g id="Layer">
		<path id="Layer" fill-rule="evenodd" class="s112" d="m373.5 204.5q-0.1 2.9 1 5.5-0.5 0.8-1 1.5-1.4-0.9-3-1-3.8-9-8.5-18 0.2-7.7 5-2 4.3 6.5 6.5 14z"/>
	</g>
	<g id="Layer">
		<path id="Layer" fill-rule="evenodd" class="s113" d="m414.5 167.5q11.5 22.6 15 47-3.3 2-4 6-5.2-25-15-49 0.8 1.9 4 2 0-3 0-6z"/>
	</g>
	<g id="Layer">
		<path id="Layer" fill-rule="evenodd" class="s114" d="m413.5 188.5q3.1 7.8 5 16-2.4 0.2-3.5-2-1.1 4.6-2.5 9-2.2-5.2-3-11-0.4-5-0.5-10 2-1.6 4.5-2z"/>
	</g>
	<g id="Layer">
		<path id="Layer" fill-rule="evenodd" class="s115" d="m233.5 200.5q-1 0-2 0 1.7-13.7 2 0z"/>
	</g>
	<g id="Layer">
		<path id="Layer" fill-rule="evenodd" class="s116" d="m86.5 191.5q-5.2 18.4-8 37 0.6-7.2-2-2 1.3 3.7-2.5 6-0.8 19.5 0.5 39-7.1-43.9 8-86 1.5 0.1 2.5-1 0.7 1.9-1.5 2.5 3.5 0.9 3 4.5z"/>
	</g>
	<g id="Layer">
		<path id="Layer" fill-rule="evenodd" class="s117" d="m304.5 212.5q-1 4.4-1 9-4.4-1.1-9-1.5 2.5-2.2 2-5.5 0-1 0-2 1.2-8.7 1.5-18 0.5-1 1-2 0.6 1.4 2 2 2.3-0.9-0.5-2.5 2.6-2.9 4-6.5 1.1 4.1 3 8-0.9 2.5 0 5.5-3.4 6.1-3 13.5z"/>
	</g>
	<g id="Layer">
		<path id="Layer" fill-rule="evenodd" class="s118" d="m227.5 199.5q0.4 2.5 2 4.5-3.7 3.4-4.5 8.5-0.5-1.5-1-3-0.4 1.4-1.5 2-1.5 2-3 0-1.4 4.4-1.5 13-7.3-3.7-15.5-3-2 0-4 0 0-2 0-4 2 0.3 3.5-1 2.9 6.3 5.5 2 2-3.1 2-7.5 0-4-1-7.5 0-2 0-4 0-1.5 0-3 1 1.3 2 3 0.8-2.9 0.5-6 1.1 0.9 2.5 1.5-1.9 2.7 0 5.5 0.6-1.1 0.5-3 2.3 1.1 4 3 0.5-0.5 1-1 0.5 1.5 1 3 0.4-2.4 1.5-4.5-3.9-3.4 0-6.5 2.2 1.3 2 4-2.6 4.4 2 4-0.2-1.6 0.5-3 0.3 1.9 1.5 3z"/>
	</g>
	<g id="Layer">
		<path id="Layer" fill-rule="evenodd" class="s119" d="m273.5 197.5q0 1.5 0 3-1 1-2 2-0.6-3.4 2-5z"/>
	</g>
	<g id="Layer">
		<path id="Layer" fill-rule="evenodd" class="s120" d="m339.5 187.5q-0.5 1-1 2-1 0-1 1-1 0-1 1-1.3 0.5-1 2-2 0.5 0 1 4.1 2.2-1 2-0.5-2-1 0-2.1 3.7-3 8-1.4 1.1-1 3 0.2 4.6-1 9-1.4 1.1-1 3-2.2-3.9-3-8.5 0.7-3 3-5-1.2-0.5-2-1.5 1.6-2.4 0-5 3.3-2.5 5-6.5 4.8-0.9 1-3 3.4-0.7 6-3-1.4-1.1-0.5-2.5 1.3 1.6 2.5 3z"/>
	</g>
	<g id="Layer">
		<path id="Layer" fill-rule="evenodd" class="s121" d="m177.5 182.5q2.3 3.6 6 6 3.2 2.1 1 5.5 2.3 0.3 2-2.5 2.2-0.1 4 1-1.1 3.4 0.5 7 3 1.3 4.5 4-0.5 2.3-3 2-0.3 4.9 2 1 1.5 3.4 1 7-2.8-0.9-5 0-1.7-3 0-6-1.8-4.2-4.5-8-1.3 3.5-2.5 7 0.2-2.2-2.5-4-3.5 2.2-1.5-1.5-1.3-1.1-2-2.5 0.9-0.6 1-2-0.7-4.8-2-9 0.1-1.9 2-2.5-1.1-1-1-2.5z"/>
	</g>
	<g id="Layer">
		<path id="Layer" fill-rule="evenodd" class="s122" d="m250.5 195.5q2.2 1.2 2 4-0.5 3-1 6-1.5-4.7-1-10z"/>
	</g>
	<g id="Layer">
		<path id="Layer" fill-rule="evenodd" class="s123" d="m314.5 186.5q1.1 6.1 0 12 1.2 1.3 3 1-0.2 2.5 0.5 5 1.1-2.5 3.5-1.5-1.2 0.5-2 1.5 1.7 2.1 3 4.5-2.3-0.7-5-1.5-0.3-3.9-1.5 0-0.7 3-0.5 6 0.5 3.8-1 7 0-1.5 0-3-7-1.9-1-6-3.8-1.5 0-3.5-0.9-0.7-2-0.5-0.1-4.4-1-9 1.6-6.3 4-12z"/>
	</g>
	<g id="Layer">
		<path id="Layer" fill-rule="evenodd" class="s124" d="m330.5 204.5q0.5 1.3 2 1 0 0.5 0 1-1.7 0.1-3 1-0.4-1.9 1-3z"/>
	</g>
	<g id="Layer">
		<path id="Layer" fill-rule="evenodd" class="s120" d="m177.5 198.5q0.7 1.4 2 2.5-2 3.7 1.5 1.5 2.7 1.8 2.5 4 1.2-3.5 2.5-7 2.7 3.8 4.5 8-1.7 3 0 6 0.8 5.2 2 10-1 1.2-2.5 2-0.3-2.8-1.5-5 0.3-1.5-1-2 0-3.5 0-7 0.4-2.9-1.5-5-1.2 10.3 0.5 20 2.2 6.3-1.5 12-0.7 6-0.5 12-1.5-5.2-1-11-3.5 0.4-6-2-1.2 0.7-1 2-0.5 0-1 0-1-5-2-10 2.1 1.6 3.5 4 1.3-4.7 3.5-1 1.8-0.5 0-1.5 2.5-0.5 5-1-5-3.8-1-9-1.7-6-2-11.5-7.7-4.1-4 5-0.8 1.9-2 3.5 1.2 3.1 1 6.5-1-1-2-2-0.5-5-1-10-0.5-3.4 2-5.5-0.2-2.3-1-5.5 0.2-2.3 2-3z"/>
	</g>
	<g id="Layer">
		<path id="Layer" fill-rule="evenodd" class="s125" d="m295.5 199.5q-0.4 2.4 1 4 0 4.5 0 9 0 1 0 2-0.5 0-1 0 0.5-4.3-1-8-0.5-3.8 1-7z"/>
	</g>
	<g id="Layer">
		<path id="Layer" fill-rule="evenodd" class="s117" d="m293.5 207.5q-2.2-1.7-3 1.5 3.8 2.3 0 4.5 4 3.6-1.5 6-2.2-1.3-2.5-4 0.2-5.8 0-10-1.3-2.5-2.5-5-0.1 3.7-2.5 2 0.4-4.7 4-5-2.5-1.8-1-4 3.5-4.4 5.5 1 0.5-1.5 1-3 0.5 0.5 1 1 1.7 3.4 1.5 7-1 1.5-2 3 0.5 1.8 1.5 0 0.7 2.5 0.5 5z"/>
	</g>
	<g id="Layer">
		<path id="Layer" fill-rule="evenodd" class="s126" d="m267.5 209.5q1.5 0 2 1.5 0.1 6.2-0.5 12.5 0.6-0.8 1.5-1-0.5 2.3-3 2 0.2-1.6-0.5-3-0.9 5.8-4.5 11 0.3-7.6-1-15-1.1-4 0-7.5-0.4-1.9-2-3 0.5-0.5 1-1-2.4-0.1-3.5 2.5-0.7-0.9-0.5-2 1.4-3.3 5-3 0.3-2-1-3.5 1.9-0.5 3.5-1.5 0.5 5.4-0.5 10 1.6 3.1 4 1z"/>
	</g>
	<g id="Layer">
		<path id="Layer" fill-rule="evenodd" class="s41" d="m281.5 204.5q2.4 2.4 2 6 0 0.5 0 1-2.2-1.9-3-5-1.8 1.7 0 3.5-1.4 0.7-3 0.5 0.3 4.2 2 8-2.2 0.4-4-1 0.3-0.9 1-1.5-0.9-3.9-2-7.5 0.4-2.9-1-5 0-1.5 0-3 0-1.5 0-3 0.1-4.8 5-5.5-0.5-0.5-1-1 1.8-1.4 2.5-3.5 0.9 2.1-0.5 4 1.1 1.2 2.5 2-0.2 2 0.5 3.5-1.8 0.7-2.5 2.5-2.8-2-1.5 0.5-2.1 1.4-2 4 0.5 4.7 1.5-0.5 1.4 3 3.5 1z"/>
	</g>
	<g id="Layer">
		<path id="Layer" fill-rule="evenodd" class="s127" d="m401.5 192.5q6.1 15.9 8 33-1.9-0.3-3-2-1.5 3.4-1 7-2.2-11.9-5-24 0.3-6.8-3-12.5 1.6-3 4-1.5z"/>
	</g>
	<g id="Layer">
		<path id="Layer" fill-rule="evenodd" class="s128" d="m208.5 203.5q1 3.5 1 7.5 0 4.4-2 7.5 0-0.5 0-1 1.5-6.7 1-14z"/>
	</g>
	<g id="Layer">
		<path id="Layer" fill-rule="evenodd" class="s129" d="m317.5 207.5q0 4 0 8-1-1-2-2-0.2-3 0.5-6 1.2-3.9 1.5 0z"/>
	</g>
	<g id="Layer">
		<path id="Layer" fill-rule="evenodd" class="s130" d="m169.5 201.5q1.6 7.8 3.5 16 1.1 2.7 2.5 5 1 1 2 2 0.2 1.6-0.5 3-1.4-2.9-4-5-0.7 1.4-0.5 3-2.1-4.2-3.5-9-0.7 0.9-0.5 2-1.8-3.7-1.5-8 1.2 3.3 3.5 0-0.8-1-2-1.5 1.4-3.6 1-7.5z"/>
	</g>
	<g id="Layer">
		<path id="Layer" fill-rule="evenodd" class="s131" d="m247.5 200.5q0.7-0.1 1 0.5-2.7 4.8-5 10 1 2.2 1 4.5-2.1 1.6-3 4-1.1 11.4-6 1 2.7-8 1-15.5 2.4-1.1 4.5 0.5 0.7-0.9 0.5-2 1.1-0.6 1.5-2 0.6 1.8 2 3 1.1-2.4-0.5-4.5 1.6-0.7 3 0.5z"/>
	</g>
	<g id="Layer">
		<path id="Layer" fill-rule="evenodd" class="s132" d="m167.5 195.5q0.5 0 1 0 1 2.9 1 6 0.4 3.9-1 7.5 1.2 0.5 2 1.5-2.3 3.3-3.5 0-0.3 4.3 1.5 8 0 1.5 0 3 0 2.5 0 5-2.6-0.2-5-1-2.8-12.4-4-25-0.2-2.1 0.5-4 1.4 1.7 2.5-0.5-2.7-0.6-4-3 4.3 1.1 9 2.5z"/>
	</g>
	<g id="Layer">
		<path id="Layer" fill-rule="evenodd" class="s133" d="m311.5 207.5q1.1-0.2 2 0.5-3.8 2 0 3.5-6 4.1 1 6 0 1.5 0 3 0.6 4.8-1.5 9-3.1-3.3-6.5-6-1-2.9-1-6 1.5-4.7 1-10 2.5 0 5 0z"/>
	</g>
	<g id="Layer">
		<path id="Layer" fill-rule="evenodd" class="s134" d="m144.5 209.5q2.9 1.9 5 5-2.5 1.5-4 4-2.5-2-5-4 2.6-2.1 4-5z"/>
	</g>
	<g id="Layer">
		<path id="Layer" fill-rule="evenodd" class="s135" d="m201.5 197.5q0.1 1.9 2 2.5-1.2 0.5-2 1.5 2.5 2 1.5 5-2 1-3 3-0.4-1.4-1.5-2-1.2-1.7-1.5-4-0.3 9.4-1.5 18.5 0.5 0.5 1 1-1.9 0.7-4 0.5-1.2-4.8-2-10 2.2-0.9 5 0 0.5-3.6-1-7-2.3 3.9-2-1 2.5 0.3 3-2-0.5-5.6 1-11 1.1 1.3 1.5 3 1.5-0.5 3-1 2.6 1.3 0.5 3z"/>
	</g>
	<g id="Layer">
		<path id="Layer" fill-rule="evenodd" class="s107" d="m207.5 216.5q0 0.5 0 1 0 0.5 0 1-2.6 4.3-5.5-2-1.5 1.3-3.5 1 0-5 0-10 1.1 0.6 1.5 2 1-2 3-3 1-3-1.5-5 0.8-1 2-1.5-1.9-0.6-2-2.5 2.6 1.7 2-2 1.5 0 3 0-0.5 10.8 1 21z"/>
	</g>
	<g id="Layer">
		<path id="Layer" fill-rule="evenodd" class="s136" d="m283.5 210.5q0.5 0 1 0 0 1 1 1-0.5 6.3 1 12-0.1 0.8-1 1-1-6.2-2-12 0-0.5 0-1 0-0.5 0-1z"/>
	</g>
	<g id="Layer">
		<path id="Layer" fill-rule="evenodd" class="s137" d="m173.5 229.5q-1.1-1.8-1-4-0.2-1.6 0.5-3 2.6 2.1 4 5 0.7-1.4 0.5-3 0.2-3.4-1-6.5 1.2-1.6 2-3.5-3.7-9.1 4-5 0.3 5.5 2 11.5-4 5.2 1 9-2.5 0.5-5 1 1.8 1 0 1.5-2.2-3.7-3.5 1-1.4-2.4-3.5-4z"/>
	</g>
	<g id="Layer">
		<path id="Layer" fill-rule="evenodd" class="s138" d="m336.5 192.5q1.8-0.3 3 1-1.5 2.2 1 4 1.3-1.5 2 0-0.9 2.3-2 4.5 3.6 3.3 0 7 1.3 2 1 4.5 0 1.5 0 3-3.1 3.9-6 0 0-0.5 0-1 1.5-2.4 0.5-5-0.5 1-1 2-1-2-2 0-0.7-1.4-0.5-3 0-1.5 0-3 0-0.5 0-1 0.7-4.5 1-9 0.5 0 1 0 5.1 0.2 1-2 0-0.5 0-1 1 0 1-1z"/>
	</g>
	<g id="Layer">
		<path id="Layer" fill-rule="evenodd" class="s139" d="m418.5 204.5q5.4 18 5 37-1.7-2.2-3-5 1.1-7.7 0.5-16-2.8 2.3-4.5 5.5 1.9 2.7 0 5.5-0.5 0-1 0-1.5-10-3-20 1.4-4.4 2.5-9 1.1 2.2 3.5 2z"/>
	</g>
	<g id="Layer">
		<path id="Layer" fill-rule="evenodd" class="s140" d="m127.5 233.5q-0.2-11.2-5-1 2.7-24.5 16-45 2.3 1.1 3 3.5-10.2 20.4-14 42.5z"/>
	</g>
	<g id="Layer">
		<path id="Layer" fill-rule="evenodd" class="s141" d="m187.5 211.5q-2 3.5 0 7-1.3 3.8-1 8-1.7-9.7-0.5-20 1.9 2.1 1.5 5z"/>
	</g>
	<g id="Layer">
		<path id="Layer" fill-rule="evenodd" class="s117" d="m314.5 185.5q1.2 1.8 3 3-0.2 1.1 0.5 2 1.7-2.6 4.5-1.5-3.1 0.5-1 2.5-9.9 1.5 0 3 0 1.5 0 3-1.6-0.2-3 0.5 2.5 0.7 5 0.5 0-1.5 0-3 6.6-0.1 1 1.5 1.1 1 1 2.5 1.6 2.6 0 5 0.8 1 2 1.5-2.3 2-3 5 0.8 4.6 3 8.5 0 0.5 0 1 0 1 0 2-1.4 1.6-1 4-1.1 1.6-3 0.5 1-0.5 2-1-1.6-1.7-3.5-1.5-2.7-4.4-4.5-9 0-4 0-8 2.7 0.8 5 1.5-1.3-2.4-3-4.5 0.8-1 2-1.5-2.4-1-3.5 1.5-0.7-2.5-0.5-5-1.8 0.3-3-1 1.1-5.9 0-12 0-0.5 0-1z"/>
	</g>
	<g id="Layer">
		<path id="Layer" fill-rule="evenodd" class="s142" d="m293.5 207.5q0.5 0 1 0-0.9 7.2 1 7 0.5 0 1 0 0.5 3.3-2 5.5 4.6 0.4 9 1.5 0-4.6 1-9-0.4 2.9 1 5 0 3.1 1 6-10-3.9-20 0-1.5-5.7-1-12 0.1-2.6-1-1-0.5 0-1 0 0.4-3.6-2-6 0-1 0-2 2.4 1.7 2.5-2 1.3 2.5 2.5 5 0.2 4.2 0 10 0.3 2.7 2.5 4 5.5-2.4 1.5-6 3.8-2.2 0-4.5 0.8-3.2 3-1.5z"/>
	</g>
	<g id="Layer">
		<path id="Layer" fill-rule="evenodd" class="s143" d="m332.5 209.5q-0.2 1.6 0.5 3 1-2 2 0 0.5-1 1-2 1 2.6-0.5 5-2 0.5 0 1 2.9 3.9 6 0-1.7 12.5-6 24-0.1-4.8 2-9-1.6-2.5-0.5-5-0.5-0.5-1-1-0.3 2.9-2.5 4.5 1 2.4-2 3.5 2.5-7.8 2.5-16-2.3 6.2-4.5 12-0.5-3-1-6-1 1.7-2 3-0.4-2.4 1-4 2-1 0-2 0-0.5 0-1-0.4-1.9 1-3-0.2 1.6 0.5 3 2.2-5 3.5-10z"/>
	</g>
	<g id="Layer">
		<path id="Layer" fill-rule="evenodd" class="s144" d="m219.5 211.5q1.5 2 3 0-1.8 3.5 0.5 7 0.6-1.8 2-3 2 4 4 8 0.3-3.3 1.5-6 0.2 11.5-0.5 23-2.5-7.9-8-14-0.6-7.6-2.5-15z"/>
	</g>
	<g id="Layer">
		<path id="Layer" fill-rule="evenodd" class="s145" d="m198.5 207.5q0 5 0 10 0 2 0 4 2 0 4 0-6.9 2.6-12.5 8-1.7-4.3-1.5-9 1.2 2.2 1.5 5 1.5-0.8 2.5-2 2.1 0.2 4-0.5-0.5-0.5-1-1 1.2-9.1 1.5-18.5 0.3 2.3 1.5 4z"/>
	</g>
	<g id="Layer">
		<path id="Layer" fill-rule="evenodd" class="s146" d="m283.5 211.5q0 0.5 0 1-1.5 7.4-2.5 15-3.5 4-5.5 9-1.5-13.7-1-28 1.1 3.6 2 7.5-0.7 0.6-1 1.5 1.8 1.4 4 1-1.7-3.8-2-8 1.6 0.2 3-0.5-1.8-1.8 0-3.5 0.8 3.1 3 5z"/>
	</g>
	<g id="Layer">
		<path id="Layer" fill-rule="evenodd" class="s147" d="m354.5 215.5q2.4 2.9 5 6-3.3 2.1-4.5 6-2.2-3.7-5.5-6.5 3.3-2.1 5-5.5z"/>
	</g>
	<g id="Layer">
		<path id="Layer" fill-rule="evenodd" class="s148" d="m251.5 217.5q1 0.5 2 1 0 4 0 8-1 1-2 2 0-5.5 0-11z"/>
	</g>
	<g id="Layer">
		<path id="Layer" fill-rule="evenodd" class="s149" d="m244.5 215.5q2 2.2 4 2-0.9 1.7-1 3-1-0.8-1.5-2-1.2 2.5-1 5 1.5-1.3 3.5-1 0 3.1 2 5.5-1.6 4.3 0 7.5 1.5-3.4 1-7 1-1 2-2 0 3.5 0 7-1 2 0 3.5-1.6 0.7-3-0.5-1.1 1.3-1.5 3-1.2-2-3.5-2.5 1.5-0.5 3-1-0.1-2.1-1-4.5-1.4 2.8-3.5 1-0.3 2.3-1.5 4 0.5-8.8-1-17 0.9-2.4 3-4z"/>
	</g>
	<g id="Layer">
		<path id="Layer" fill-rule="evenodd" class="s150" d="m317.5 215.5q1.8 4.6 4.5 9 1.9-0.2 3.5 1.5-1 0.5-2 1 1.9 1.1 3-0.5 1-1.3 2-3 0.5 3 1 6-0.3 4.7-2 9 0.5 1.8 1.5 0 1.1-2.7 2.5-5 3-1.1 2-3.5 2.2-1.6 2.5-4.5 0.5 0.5 1 1-1.1 2.5 0.5 5-2.1 4.2-2 9 0.1 3.1-2 5-0.1-1.9-2-2.5-2.5-0.7-5-0.5 0.3 1.8-1 3-0.5-0.5-1-1 1.7-2.4 1.5-5-2 0.4-4.5 0.5-0.9 3.9-2 7.5-0.5-9.2-3-18 0.9-7 1-14z"/>
	</g>
	<g id="Layer">
		<path id="Layer" fill-rule="evenodd" class="s151" d="m373.5 204.5q6.7 14.1 8 30-5.1-12.2-5 1-2.2-12.5-6-25 1.6 0.1 3 1 0.5-0.8 1-1.5-1.1-2.6-1-5.5z"/>
	</g>
	<g id="Layer">
		<path id="Layer" fill-rule="evenodd" class="s152" d="m98.5 244.5q2 2.5 0 5 0 9 0 18-1.5 0-3 0 0.5-4.1-2-7-1.7-19.7 2-39 2.6-0.4 5 0-1.3 1.1-3 1.5 1.5 10.6 1 21.5z"/>
	</g>
	<g id="Layer">
		<path id="Layer" fill-rule="evenodd" class="s153" d="m261.5 217.5q1.3 7.4 1 15 0 4 0 8-1-0.5-2-1-0.5-11.3 1-22z"/>
	</g>
	<g id="Layer">
		<path id="Layer" fill-rule="evenodd" class="s154" d="m271.5 204.5q-0.4 27 1 54-1.7-2.2-3-5 0.8-2.5 1-5 0-3.5 0-7-2.9-0.1-5.5 1-1.5-0.8-2.5-2 0-4 0-8 3.6-5.2 4.5-11 0.7 1.4 0.5 3 2.5 0.3 3-2-0.5-9.3 1-18z"/>
	</g>
	<g id="Layer">
		<path id="Layer" fill-rule="evenodd" class="s155" d="m385.5 228.5q3.6 0.3 3 4-2 0-4 0-0.1-2.2 1-4z"/>
	</g>
	<g id="Layer">
		<path id="Layer" fill-rule="evenodd" class="s156" d="m273.5 203.5q1.4 2.1 1 5-0.5 14.3 1 28 0.1 1.9-1.5 3-0.8-18-0.5-36z"/>
	</g>
	<g id="Layer">
		<path id="Layer" fill-rule="evenodd" class="s157" d="m429.5 214.5q4.3 21.1 2 42 0.6-6-3-10.5 2.3-3.1-1-4.5 0.5-9.9-2-19 0-1 0-2 0.7-4 4-6z"/>
	</g>
	<g id="Layer">
		<path id="Layer" fill-rule="evenodd" class="s93" d="m241.5 239.5q0.5 0 1 0 0.4 4.4-1 8.5 1 0.5 2 1-2.2 1.5-4 3.5 0.8 1 2 1.5-2.8 1.7-6 1.5 2-3.1-2-4-1 3.2-2 6 0.7-9 1-18 1.1-0.6 1.5-2 0.6 2.2 2.5 1.5 0.9-2.3 2-4.5-0.8 3.3 3 5z"/>
	</g>
	<g id="Layer">
		<path id="Layer" fill-rule="evenodd" class="s158" d="m199.5 234.5q13.7-0.8 7 10.5-10.9 3.9-9.5-7.5 1.6-1.3 2.5-3z"/>
	</g>
	<g id="Layer">
		<path id="Layer" fill-rule="evenodd" class="s159" d="m242.5 239.5q3.1 1.4 1 4.5 1.7 6.9 3-0.5 1.5 3.8 3.5 0 1.8 2.3 1 5-1.9-3.5-4.5 0 0.9 2.6 3 4.5-0.5 0.5-1 1 1.9 0.7 4 0.5-0.6 1.1-2 1.5 1.7 0.4 3 1.5-0.8 1.2-2.5 0-1.9 0.4-3 2-0.5-2-1-4-0.5 1-1 2-0.3-2.2-1.5-4-1.6 1.3 0 3-1.7 1.7-2.5-1-3 3-4.5 7-0.1-3.3-2-7 3.2 0.2 6-1.5-1.2-0.5-2-1.5 1.8-2 4-3.5-1-0.5-2-1 1.4-4.1 1-8.5z"/>
	</g>
	<g id="Layer">
		<path id="Layer" fill-rule="evenodd" class="s117" d="m260.5 239.5q1 0.5 2 1 1 1.2 2.5 2 2.6-1.1 5.5-1 0 3.5 0 7-2.2-1.3-2.5-4-0.7 2.4-2.5 4 1.2 1.4 0.5 3-0.5-0.5-1-1-1.6 5.6-1.5-1-3 0-6 0 0.2 1.6-0.5 3-0.7-2.6-2-5-1 2-2 0 1.1 2.8 2.5 6-1.9-0.4-3 1-2.1 0.2-4-0.5 0.5-0.5 1-1-2.1-1.9-3-4.5 2.6-3.5 4.5 0 0.8-2.7-1-5-2 3.8-3.5 0-1.3 7.4-3 0.5 2.1-3.1-1-4.5-0.5 0-1 0-0.4-1.9 1-3 1.2-1.7 1.5-4 2.1 1.8 3.5-1 0.9 2.4 1 4.5-1.5 0.5-3 1 2.3 0.5 3.5 2.5 0.4-1.7 1.5-3 1.4 1.2 3 0.5-1-1.5 0-3.5 2.9-4.7 5-10 2 7.8 0 15.5 0.9 0.7 2 0.5z"/>
	</g>
	<g id="Layer">
		<path id="Layer" fill-rule="evenodd" class="s160" d="m168.5 221.5q2 5.7 3.5 12 1.4 3.3 3.5 6-0.1 2.6 1 1 2.1 4.6 5 9-1.1 0.4-2.5 1-0.9 1.4 0.5 2.5-3.3 0.6-4 3 3.3 1.8 4.5 5.5 1.9-1.9 3.5-1-1.2 2.4-4 2 0 2.5 0 5-4.8-11.1-10.5-22-4.2-9.6-5.5-20 2.4 0.8 5 1 0-2.5 0-5z"/>
	</g>
	<g id="Layer">
		<path id="Layer" fill-rule="evenodd" class="s161" d="m290.5 234.5q12.7-0.8 7 10.5-10.9 3.9-9.5-7.5 1-1.8 2.5-3z"/>
	</g>
	<g id="Layer">
		<path id="Layer" fill-rule="evenodd" class="s162" d="m360.5 237.5q3 2 3.5 6 1.9 2.1 4.5 3 1.3 1.2 1 3-2.8-0.3-4.5 2-1.8 3.5-3.5 7-2.6-7.4-10-10.5 7.5-2.7 9-10.5z"/>
	</g>
	<g id="Layer">
		<path id="Layer" fill-rule="evenodd" class="s163" d="m146.5 238.5q2.2 1.3 2.5 4 2.4 1.3 4.5 3-4.6 2.9-6.5 8-2.2-4.9-6.5-8 4.1-2.6 6-7z"/>
	</g>
	<g id="Layer">
		<path id="Layer" fill-rule="evenodd" class="s164" d="m333.5 245.5q-0.9-0.2-1.5-1-2.2 5.7-5.5 10.5 0.5 0.5 1 1-2.8 1.3-5.5 2.5-0.6-1.8-2-3-1.6 4.9-1.5 10-5.1 1.5-5 6-1.4 1.7-2.5 0-0.7 2.1-2.5 3.5 0.5 0.5 1 1-2.5-0.2-5-1.5 2.5-1.5 4-4 2.3 0.1 3-2 6.1-6.1 7-15 0-3.1 1-6 1.1-3.6 2-7.5 2.5-0.1 4.5-0.5 0.2 2.6-1.5 5 0.5 0.5 1 1 1.3-1.2 1-3 2.5-0.2 5 0.5 1.9 0.6 2 2.5z"/>
	</g>
	<g id="Layer">
		<path id="Layer" fill-rule="evenodd" class="s104" d="m90.5 222.5q-3 21.9-1 44 0.7 4.3-2 7.5 1.5 0.5 3 1-2.1 0.6-4 1.5-1.1-2.9-3-1-5.3-25.9-1-52 0.9-0.2 1.5-1 0.3-3.6 1.5-7 7.2-4.6 3 2.5 2.4 1.6 2 4.5z"/>
	</g>
	<g id="Layer">
		<path id="Layer" fill-rule="evenodd" class="s165" d="m78.5 228.5q0 1.5 0 3-1.2 18.7-1.5 38-0.5-1-1-2-0.3 2.3-1.5 4-1.3-19.5-0.5-39 3.8-2.3 2.5-6 2.6-5.2 2 2z"/>
	</g>
	<g id="Layer">
		<path id="Layer" fill-rule="evenodd" class="s166" d="m270.5 248.5q-0.2 2.5-1 5 1.3 2.8 3 5 1.1 3.9 1 8 1.1 3.4 1 7 0.9 1.3 1 3-3.9 0.6-6.5-2-0.5 1-1 2-1.1-2.2-3.5-2-0.3-2.1-1.5-4-1.7 1.7-2.5-1 0.8-1 2-1.5-1.8-1.4-2.5-3.5-1.2 1.6-2.5 0-1.6-0.1-3-1-1.7 1.7 1 2.5-3.7 1.4-4-2.5 1.8-1.1 4-1-0.3-3.1 1-6-1.2-2.4-4-2 1.1-1.4 3-1-1.4-3.2-2.5-6 1 2 2 0 1.3 2.4 2 5 0.7-1.4 0.5-3 3 0 6 0-0.1 6.6 1.5 1 0.5 0.5 1 1 0.7-1.6-0.5-3 1.8-1.6 2.5-4 0.3 2.7 2.5 4z"/>
	</g>
	<g id="Layer">
		<path id="Layer" fill-rule="evenodd" class="s55" d="m423.5 241.5q1.8 4.3 0 9-1.7 6.3-3.5 13-0.5 0.5-1 1-0.3-1.8-0.5-3.5 0.6-2.8 0.5-5.5-1.7 2.7-2 6-0.7-15-0.5-30 1.9-2.8 0-5.5 1.7-3.2 4.5-5.5 0.6 8.3-0.5 16 1.3 2.8 3 5z"/>
	</g>
	<g id="Layer">
		<path id="Layer" fill-rule="evenodd" class="s167" d="m425.5 222.5q2.5 9.1 2 19 0.5 7.3-1 14 0.2-16.5-1-33z"/>
	</g>
	<g id="Layer">
		<path id="Layer" fill-rule="evenodd" class="s168" d="m235.5 255.5q1.9 3.7 2 7 1.5-4 4.5-7 0.8 2.7 2.5 1-1.6-1.7 0-3 1.2 1.8 1.5 4 0.5-1 1-2 0.5 2 1 4 1.1-1.6 3-2 1.7 1.2 2.5 0-1.3-1.1-3-1.5 1.4-0.4 2-1.5 2.8-0.4 4 2-1.3 2.9-1 6-2.2-0.1-4 1 0.1-0.7-0.5-1-2 0.9-3.5 2-2.3-0.5-2-3-1.6 0.2-3-0.5 2.2-0.3 4-1.5-0.5-0.5-1-1-2.4 1-5 1.5 1 2 2 4-0.5 0.3-1 0.5-1.9-5.7-2 0-2.2-0.4-4 1 1.9 1.7 4 0 1.8 0.5 0 1.5-5.6 0.7-9 4.5-0.2-4 0.5-8 0.5 0.5 1 1 0.8-3.6-0.5-7 1-2.8 2-6 4 0.9 2 4z"/>
	</g>
	<g id="Layer">
		<path id="Layer" fill-rule="evenodd" class="s169" d="m127.5 233.5q0 1.5 0 3-1.2 12.7-1.5 26-1-4-2 0-0.4-1.4-1.5-2-1.9-13.8 0-28 4.8-10.2 5 1z"/>
	</g>
	<g id="Layer">
		<path id="Layer" fill-rule="evenodd" class="s170" d="m227.5 258.5q0-1-1-1 0.4-3.7 2 0-0.2 0.9-1 1z"/>
	</g>
	<g id="Layer">
		<path id="Layer" fill-rule="evenodd" class="s171" d="m427.5 241.5q3.3 1.4 1 4.5 3.6 4.5 3 10.5 0 2.5 0 5-1.4 1.6-1 4-1.6-0.2-3 0.5 4.1 4.8-1.5 8.5-0.7-3-0.5-6 0-6.6 1-13 1.5-6.7 1-14z"/>
	</g>
	<g id="Layer">
		<path id="Layer" fill-rule="evenodd" class="s172" d="m390.5 258.5q9 1.9 1 6-5.2-2.4-1-6z"/>
	</g>
	<g id="Layer">
		<path id="Layer" fill-rule="evenodd" class="s173" d="m409.5 225.5q1.5 4.2 1 9 0.2 11-0.5 22-0.1 6.3-2 12-1.7-17.6-2.5-35 0-1.5 0-3-0.5-3.6 1-7 1.1 1.7 3 2z"/>
	</g>
	<g id="Layer">
		<path id="Layer" fill-rule="evenodd" class="s174" d="m184.5 250.5q0 1 0 2 2.5 8.1 5 16-1.5 3-5 4 0.9 1.9 3 2.5-1.3 2.5 1.5 0.5 0.5-2 1-4 0.9 3 3 1 3.4 1.9 1.5 5-1.8-0.5 0-1.5-1.5-1-3 0 1.3 1.9-1 3.5-1-1-2-2-3 4.9-6 0.5-0.1-1.9 1-4-2.3-2.1-4-4.5 0-1 0-2 0-2.5 0-5 2.8 0.4 4-2-1.6-0.9-3.5 1-1.2-3.7-4.5-5.5 0.7-2.4 4-3-1.4-1.1-0.5-2.5 1.4-0.6 2.5-1-2.9-4.4-5-9 0-0.5 0-1-0.2-1.3 1-2 2.5 2.4 6 2-0.5 5.8 1 11z"/>
	</g>
	<g id="Layer">
		<path id="Layer" fill-rule="evenodd" class="s175" d="m247.5 264.5q0.7-0.1 1 0.5-2.4 2.2-5 0.5-1.4 1.8-1 4 2.7-0.8 5-1.5-1.8 2.5-4 4.5 2.1 5.7 2.5-1 0.4 2.7 2.5 4.5-2.1 4.2-4.5 0.5-0.7 1.9-0.5 4-6.1-0.9-12-0.5 0.2-1.9-1.5-3.5-0.9 3.8 1.5 7 2.7 1.9 5 0 1.8-0.3 3 1-0.9 2.8-2 5.5 0.5 0.3 1 0.5 1.2-1.8 1.5-4 1.6 3.4 4.5 1-0.1 2 1 4.5-6.2 1-11 4.5-5.3-2.9-11-5-1-0.5-2-1-1.9-1.1-1.5-3 1.4 1.7 2.5-0.5-0.5-0.5-1-1 9.3-2.7 1-7.5 1.6-3.3 3-7-0.2 3.2 1 7 2.1-0.8 2-3 0-2.5 2-4 3.4-3.8 9-4.5 1.8-1 0-1.5-2.1 1.7-4 0 1.8-1.4 4-1 0.1-5.7 2 0 0.5-0.3 1-0.5-1-2-2-4 2.6-0.5 5-1.5 0.5 0.5 1 1-1.8 1.2-4 1.5 1.4 0.7 3 0.5-0.3 2.5 2 3z"/>
	</g>
	<g id="Layer">
		<path id="Layer" fill-rule="evenodd" class="s176" d="m318.5 253.5q-0.9 8.9-7 15-0.5 0-1 0 3.2-3.5 5-8-0.2-0.9-1-1 1.3-3.5 4-6z"/>
	</g>
	<g id="Layer">
		<path id="Layer" fill-rule="evenodd" class="s177" d="m109.5 261.5q8.4 1.6 2 7-6-2.5-2-7z"/>
	</g>
	<g id="Layer">
		<path id="Layer" fill-rule="evenodd" class="s178" d="m314.5 259.5q0.8 0.1 1 1-1.8 4.5-5 8-1.5 0.5-2 2-10.3 5-21 1-1.4 0.7 0 2 1.7 2.6 5 3 3.5 0.1 5 3-5.3-1.2-10.5-3-1.1 1.3-2.5 2-0.6-1.1-2-1.5 2.3-0.4 4-2-2.7-0.5-1-2-1.4-0.7-3-0.5-1.1-3.1 0-6-2.8-1.4-6-1 0.5 5.8-1 11-0.1-1.7-1-3 1.4-2.6 1-6-0.2-6 0.5-12 16.9 23.6 38.5 4z"/>
	</g>
	<g id="Layer">
		<path id="Layer" fill-rule="evenodd" class="s179" d="m381.5 234.5q2.2 16.3-1 32-1.4-0.7-2.5-2 0.7 4.4 0.5 8.5-2.6 1.5-3.5 4.5-1-3.6 1.5-6.5-1.3-2-1-4.5 1.2-15.5 1-31-0.1-13.2 5-1z"/>
	</g>
	<g id="Layer">
		<path id="Layer" fill-rule="evenodd" class="s180" d="m415.5 231.5q0.5 0 1 0-0.2 15 0.5 30 0.3-3.3 2-6 0.1 2.7-0.5 5.5 0.3 1.8 0.5 3.5 0.5-0.5 1-1 1.8-6.7 3.5-13 0.3 24.4-8 47 1.5-10.2 3-20.5-0.9-6.3-2.5-12.5-0.3 4.3-1.5 8 1.2-20.5 1-41z"/>
	</g>
	<g id="Layer">
		<path id="Layer" fill-rule="evenodd" class="s181" d="m184.5 252.5q6.4 10.7 18 15.5 15.5 2.5 24-10.5 1 0 1 1 0.9 4.5 1 9 1.2-5.3 3-10 1.3 3.4 0.5 7-0.5-0.5-1-1-0.7 4-0.5 8-2 1.5-2 4-1.4-1.6-1-4 1.7-2 0-1-1.1-0.6-1.5-2-1.5 3.6-2-1-1.7 1.9-0.5 3.5-2.9 1.2-6 1.5-0.4-0.9-1.5-1-11.7 3.7-22.5-2 0-1-1-1-0.5-2-1 0-1 0-2 0-2.5-7.9-5-16z"/>
	</g>
	<g id="Layer">
		<path id="Layer" fill-rule="evenodd" class="s182" d="m257.5 264.5q1.3 1.6 2.5 0 0.7 2.1 2.5 3.5-1.2 0.5-2 1.5 0.8 2.7 2.5 1 1.2 1.9 1.5 4-1.6 1.3 0 2.5-1.4 0.6-2.5 1.5-0.6 8.1-3.5 1.5-5.8 0.6 0 2.5-1.4 3.4 2.5 5 1.9 0.7 3.5 2 1-0.8 1.5-2 3 3.1 4.5 7-2.5 0-4 2-3.6-1.1-6.5 2-0.5-0.5-1-1-0.6 1.9-2.5 2-1.6-2.1-4-3.5 2.2-1.6 2.5-4.5 1 1.8 1.5 0-1.3-1.1-3-1.5 2-0.5 4-1-4-0.5-2-3.5-3.5-4.4-4.5 1-0.5-1-1-2-0.6 1.8-2 3 0-2.4 0.5-5 3 0.5 4-2-0.3-2.3-2-4 2-2.5 4-5-1.5 0.3-3-1.5 5.6 0.1 6-5.5z"/>
	</g>
	<g id="Layer">
		<path id="Layer" fill-rule="evenodd" class="s183" d="m273.5 266.5q1 0.5 2 1 0.4 3.4-1 6 0.1-3.6-1-7z"/>
	</g>
	<g id="Layer">
		<path id="Layer" fill-rule="evenodd" class="s184" d="m98.5 249.5q0.7 23.9 8.5 47 1 2.5 0 5-2 2-4 0-8.6-19.6-9.5-41 2.5 2.9 2 7 1.5 0 3 0 0-9 0-18z"/>
	</g>
	<g id="Layer">
		<path id="Layer" fill-rule="evenodd" class="s185" d="m168.5 250.5q10 11.4 10.5 27 4.6 11.7 10 23 1 1.5 0 3-11.8-12.9-16-30-3-11.4-4.5-23z"/>
	</g>
	<g id="Layer">
		<path id="Layer" fill-rule="evenodd" class="s186" d="m333.5 250.5q-0.6 29.6-19.5 53 6-14.6 11-30 1.2-5.5 2-11 3.7-5.8 6.5-12z"/>
	</g>
	<g id="Layer">
		<path id="Layer" fill-rule="evenodd" class="s41" d="m251.5 263.5q0.3 3.9 4 2.5-2.7-0.8-1-2.5 1.4 0.9 3 1-0.4 5.6-6 5.5 1.5 1.8 3 1.5-2 2.5-4 5 1.7 1.7 2 4-2 2.2-2.5-1-1.9 3.5-6 3-5.2-1.2-10.5-0.5 1.1 1.6 3 1.5-2.3 1.9-5 0-2.4-3.2-1.5-7 1.7 1.6 1.5 3.5 5.9-0.4 12 0.5-0.2-2.1 0.5-4 2.4 3.7 4.5-0.5-2.1-1.8-2.5-4.5-0.4 6.7-2.5 1 2.2-2 4-4.5-2.3 0.7-5 1.5-0.4-2.2 1-4 2.6 1.7 5-0.5-0.3-0.6-1-0.5 1.5-1.1 3.5-2 0.6 0.3 0.5 1z"/>
	</g>
	<g id="Layer">
		<path id="Layer" fill-rule="evenodd" class="s187" d="m405.5 233.5q0.8 17.4 2.5 35 1.9-5.7 2-12 0.7-11 0.5-22 3.5 34.3-8.5 67-3.7 2.4-5.5-1.5 11.8-32.2 9-66.5z"/>
	</g>
	<g id="Layer">
		<path id="Layer" fill-rule="evenodd" class="s188" d="m200.5 275.5q0-0.5 0-1 5.8-0.5 11 1 0 1-1 1-0.5-2-1 0-1.9 2.4-5 1.5 2-1 4-2-4-0.7-8-0.5z"/>
	</g>
	<g id="Layer">
		<path id="Layer" fill-rule="evenodd" class="s189" d="m287.5 273.5q8.4 1.2 17 1-1.5 1.8-2.5 4-0.7-1.4-0.5-3-4.8-0.5-9 1-3.3-0.4-5-3z"/>
	</g>
	<g id="Layer">
		<path id="Layer" fill-rule="evenodd" class="s190" d="m284.5 278.5q-1.1-0.2-2 0.5 1.8 1.3 0 2.5-1-0.8-1.5-2-2.1 1.1-4.5 1.5 2.8 0.3 5 2-1.5 1.6-0.5 3.5 1-4 2 0 1.1-2.7 3-5 2.9 1.8-0.5 3 1.1 1 2 2 0.5 3.3-2 5.5 1.4 0.9 2.5-0.5 0.2 4.5-4.5 5-0.3-4.1-4-5-4 2-8 4 0-1-1-1-1.5-3.9-4.5-7-0.5 1.2-1.5 2-1.6-1.3-3.5-2-3.9-1.6-2.5-5-5.8-1.9 0-2.5 2.9 6.6 3.5-1.5 1.1-0.9 2.5-1.5-1.6-1.2 0-2.5 2.4-0.2 3.5 2 0.5-1 1-2 2.6 2.6 6.5 2 1.5-5.2 1-11 3.2-0.4 6 1-1.1 2.9 0 6 1.6-0.2 3 0.5-1.7 1.5 1 2-1.7 1.6-4 2 1.4 0.4 2 1.5z"/>
	</g>
	<g id="Layer">
		<path id="Layer" fill-rule="evenodd" class="s191" d="m78.5 231.5q-0.6 23.1 2 46-0.1 4 2 7 0 0.5 0 1-0.1 4 2 7 0 0.5 0 1 0.2 2.5 2 4 3.9 12.2 9 24-2.1 2.4-5 1.5-13.2-24.1-16-51.5 1.2-1.7 1.5-4 0.5 1 1 2 0.3-19.3 1.5-38z"/>
	</g>
	<g id="Layer">
		<path id="Layer" fill-rule="evenodd" class="s90" d="m189.5 268.5q1 0 2 0 0.5 0 1 0 1 0 1 1 2.8 3.6 7 5 0 0.5 0 1-5.9 0.3 0 1.5-2.1 0.6-3 2.5 2.3 5.5-1.5 2-0.7 0.9-0.5 2-3.3-0.5-5.5-3-0.4 2.7-2.5 4.5 1 0.5 2 1-1.9 1.2-4 1.5-4.5-8.5-6-18 1.7 2.4 4 4.5-1.1 2.1-1 4 3 4.4 6-0.5 1 1 2 2 2.3-1.6 1-3.5 1.5-1 3 0-1.8 1 0 1.5 1.9-3.1-1.5-5-2.1 2-3-1-0.5 2-1 4-2.8 2-1.5-0.5-2.1-0.6-3-2.5 3.5-1 5-4z"/>
	</g>
	<g id="Layer">
		<path id="Layer" fill-rule="evenodd" class="s121" d="m318.5 265.5q1.1 0.6 1.5 2 0.7-3.6 2.5-0.5-1 1.6-1.5 3.5-0.5-1-1-2-1.5 2.8-2 6-0.5-2-1-4-2.2 1.1-0.5 2.5-2.5 0.7-5 0.5 0.2 6.5 1 1 1.5 0 3 0-1.8 3.5-4 7-3.4 0.4-3.5 4-0.5-1-1-2-0.6 3.8-2.5 7-1.1-1.3-1.5-3-1 2-2 4 0.6-4.2 0.5-8-1.2-1.4-3-2 0.3-1.5-1-2-1.5-2.9-5-3 4.2-1.5 9-1-0.2 1.6 0.5 3 1-2.2 2.5-4 2.5 1.3 5 1.5-0.5-0.5-1-1 1.8-1.4 2.5-3.5 1.1 1.7 2.5 0-0.1-4.5 5-6z"/>
	</g>
	<g id="Layer">
		<path id="Layer" fill-rule="evenodd" class="s192" d="m252.5 280.5q-1 2.5-4 2-0.5 2.6-0.5 5 1.4-1.2 2-3 0.5 1 1 2 1-5.4 4.5-1-2 3 2 3.5-2 0.5-4 1 1.7 0.4 3 1.5-0.5 1.8-1.5 0-0.3 2.9-2.5 4.5 2.4 1.4 4 3.5-5.5 0.2-11-0.5-0.9-1.1-1.5-2.5-4.6 0.6-9.5 0 4.8-3.5 11-4.5-1.1-2.5-1-4.5-2.9 2.4-4.5-1-0.3 2.2-1.5 4-0.5-0.3-1-0.5 1.1-2.7 2-5.5-1.2-1.3-3-1-1.9 0.1-3-1.5 5.3-0.7 10.5 0.5 4.1 0.5 6-3 0.5 3.2 2.5 1z"/>
	</g>
	<g id="Layer">
		<path id="Layer" fill-rule="evenodd" class="s116" d="m351.5 270.5q1.5 0 2 1.5 1.1 3.9 3 7.5 3.8 1.8 7 4.5-2.8 2.8-6.5 4.5-2.2 5.2-5 10-2-10.3-11.5-14.5 3.4-2.8 7.5-4.5 1.9-4.5 3.5-9z"/>
	</g>
	<g id="Layer">
		<path id="Layer" fill-rule="evenodd" class="s193" d="m227.5 270.5q0 0.5 0 1-0.4 2.4 1 4 0.1 2.2-2 3-1.2-3.8-1-7-1.4 3.7-3 7-1.1-0.6-1.5-2-2.8 3.6-6 0-2.1 1.4-4.5 2.5 2.6 2.8 3.5-0.5 1.2 2.2-0.5 4-2.6 0.9-4.5 3-0.4-4.9-2.5-1 2 3.5-2 5 5.2 1.7 9-4 0 1.3 1 3-4.4 1.7-8 5 0.3 4.8 5 5.5-1.9 0.6-2 2.5-1.1-0.6-1.5-2-0.3 1-0.5 2 2.1 9 2.5 18-1.5-1-3-2-4-10.7-8.5-21 1.8-6.8-3-13-0.2-1.1 0.5-2 3.8 3.5 1.5-2 0.9-1.9 3-2.5-5.9-1.2 0-1.5 4-0.2 8 0.5-2 1-4 2 3.1 0.9 5-1.5 0.5 0 1 0 1 0 1-1 3-1.5 6-3 3.1-0.3 6-1.5-1.2-1.6 0.5-3.5 0.5 4.6 2 1 0.4 1.4 1.5 2z"/>
	</g>
	<g id="Layer">
		<path id="Layer" fill-rule="evenodd" class="s137" d="m297.5 279.5q1.3 0.5 1 2-1.3-0.2-2 1-1.6 3.6-3.5 7-1.5-2.5-3-5-0.6 1.9-2.5 2-0.9-1-2-2 3.4-1.2 0.5-3-1.9 2.3-3 5-1-4-2 0-1-1.9 0.5-3.5-2.2-1.7-5-2 2.4-0.4 4.5-1.5 0.5 1.2 1.5 2 1.8-1.2 0-2.5 0.9-0.7 2-0.5 1.4-0.7 2.5-2 5.2 1.8 10.5 3z"/>
	</g>
	<g id="Layer">
		<path id="Layer" fill-rule="evenodd" class="s194" d="m333.5 245.5q-3.4 8.8-8.5 17-2.3 8.9-4 18-7.3 13.6-13 28-1.5 1.8-3.5 3-0.5-1.3-1-2.5 3.6-12.4 8-24.5 2-1.5 0-3 2.2-3.5 4-7-1.5 0-3 0-0.8 5.5-1-1 2.5 0.2 5-0.5-1.7-1.4 0.5-2.5 0.5 2 1 4 0.5-3.2 2-6 0.5 1 1 2 0.5-1.9 1.5-3.5-1.8-3.1-2.5 0.5-0.4-1.4-1.5-2-0.1-5.1 1.5-10 1.4 1.2 2 3 2.7-1.2 5.5-2.5-0.5-0.5-1-1 3.3-4.8 5.5-10.5 0.6 0.8 1.5 1z"/>
	</g>
	<g id="Layer">
		<path id="Layer" fill-rule="evenodd" class="s40" d="m89.5 266.5q2.1 7.7 3 16 1.6 7-5 9-3.4-7.5-4-16 1.9-1.9 3 1 1.9-0.9 4-1.5-1.5-0.5-3-1 2.7-3.2 2-7.5z"/>
	</g>
	<g id="Layer">
		<path id="Layer" fill-rule="evenodd" class="s195" d="m127.5 236.5q-3.8 44 22.5 79 0.7 2.5 0.5 5-3.3 0.5-5.5-2-19.6-25.6-22.5-58 1.1 0.6 1.5 2 1-4 2 0 0.3-13.3 1.5-26z"/>
	</g>
	<g id="Layer">
		<path id="Layer" fill-rule="evenodd" class="s104" d="m150.5 266.5q1.5-0.1 2.5 1 1.3 4.2 3.5 8 3.8 2.2 7 5-3.7 1.6-7 4-2 5.4-5 10-2.2-10.2-12-14 3.3-3 7.5-5 2.5-4.2 3.5-9z"/>
	</g>
	<g id="Layer">
		<path id="Layer" fill-rule="evenodd" class="s196" d="m80.5 277.5q2.5 2.9 2 7-2.1-3-2-7z"/>
	</g>
	<g id="Layer">
		<path id="Layer" fill-rule="evenodd" class="s197" d="m222.5 278.5q8.3 4.8-1 7.5 0.5 0.5 1 1-1.1 2.2-2.5 0.5-0.4 1.9 1.5 3-1.8 1.6-2.5 4-1.5-2.5-3-5-5.3 4-1.5-1-1-1.7-1-3-3.8 5.7-9 4 4-1.5 2-5 2.1-3.9 2.5 1 1.9-2.1 4.5-3 1.7-1.8 0.5-4-0.9 3.3-3.5 0.5 2.4-1.1 4.5-2.5 3.2 3.6 6 0 0.4 1.4 1.5 2z"/>
	</g>
	<g id="Layer">
		<path id="Layer" fill-rule="evenodd" class="s198" d="m82.5 285.5q2.1 3 2 7-2.1-3-2-7z"/>
	</g>
	<g id="Layer">
		<path id="Layer" fill-rule="evenodd" class="s199" d="m311.5 281.5q0 1.5 0 3-10.3 15.1-15 33-3.6 4.4-3-1.5 1.7-7.7 1.5-15.5-3.1 7.7-6.5 15-2.1-2.3-4-5 2-2.7 4.5-1 0.5-1.9 1.5-3.5-1.3-1.5-1-3.5-1.6 0.2-3-0.5 2.3-1.2 3.5-3.5 0.5 0.5 1 1 1.4-1.6 2.5-3.5-0.7-1.5-0.5-3.5-1.1-0.9-2.5-1.5 2.4-1.1 4.5 0.5 0.7-2.6 2-5 1 1.8 1.5 0-1.4-1.9-0.5-4 0.5 1 1 2 1-1.1 2.5-1 0.1 3.8-0.5 8 1-2 2-4 0.4 1.7 1.5 3 1.9-3.2 2.5-7 0.5 1 1 2 0.1-3.6 3.5-4z"/>
	</g>
	<g id="Layer">
		<path id="Layer" fill-rule="evenodd" class="s200" d="m195.5 283.5q4.8 6.2 3 13-2.7-4.4-5.5-9-0.3 0.8-0.5 1.5 4.7 10.1 7 21-0.5 1.9-2 1-6.2-11.6-12-23.5 2.1-0.3 4-1.5-1-0.5-2-1 2.1-1.8 2.5-4.5 2.2 2.5 5.5 3z"/>
	</g>
	<g id="Layer">
		<path id="Layer" fill-rule="evenodd" class="s201" d="m380.5 266.5q-3.9 30.1-23 53.5-1.9 0.7-4 0.5 0.3-6.6 5.5-11 12.3-20.1 16.5-43-0.3 2.5 1 4.5-2.5 2.9-1.5 6.5 0.9-3 3.5-4.5 0.2-4.1-0.5-8.5 1.1 1.3 2.5 2z"/>
	</g>
	<g id="Layer">
		<path id="Layer" fill-rule="evenodd" class="s202" d="m92.5 282.5q4.7 20.6 15 39.5-4.9 1.2-9.5-0.5-6.6-14.5-10.5-30 6.6-2 5-9z"/>
	</g>
	<g id="Layer">
		<path id="Layer" fill-rule="evenodd" class="s203" d="m270.5 294.5q1 0 1 1-8.8 5.4-19.5 5-9.5 0.4-17.5-4 4.9 0.6 9.5 0 0.6 1.4 1.5 2.5 5.5 0.7 11 0.5 1.9-0.1 2.5-2 0.5 0.5 1 1 2.9-3.1 6.5-2 1.5-2 4-2z"/>
	</g>
	<g id="Layer">
		<path id="Layer" fill-rule="evenodd" class="s204" d="m84.5 293.5q2.4 1.2 2 4-1.8-1.5-2-4z"/>
	</g>
	<g id="Layer">
		<path id="Layer" fill-rule="evenodd" class="s205" d="m431.5 261.5q-1.9 32.2-16.5 61-3.1 1.9-5.5-1 11.7-25.6 16-53-0.2 3 0.5 6 5.6-3.7 1.5-8.5 1.4-0.7 3-0.5-0.4-2.4 1-4z"/>
	</g>
	<g id="Layer">
		<path id="Layer" fill-rule="evenodd" class="s206" d="m276.5 298.5q1 2 2 4 0.4 2.4-1 4 0.4-1.9-1-3 0-2.5 0-5z"/>
	</g>
	<g id="Layer">
		<path id="Layer" fill-rule="evenodd" class="s207" d="m415.5 297.5q-0.7 4.4-3 8-2.1-0.1-4 1-1.5-3.4-1-7 3.8-13.6 7-27 1.2-3.7 1.5-8 1.6 6.2 2.5 12.5-1.5 10.3-3 20.5z"/>
	</g>
	<g id="Layer">
		<path id="Layer" fill-rule="evenodd" class="s208" d="m119.5 296.5q2.8 1.5 4 4.5-2.3 1.8-3.5 4.5-1.7-2.2-3.5-4.5 1.2-2.5 3-4.5z"/>
	</g>
	<g id="Layer">
		<path id="Layer" fill-rule="evenodd" class="s209" d="m214.5 288.5q-3.8 5 1.5 1 1.5 2.5 3 5 0.7-2.4 2.5-4 1 0.5 2 1-0.5 1-1 2-2.8 1.7-1.5 5 0.4-1.7 1.5-3 0.5 0.5 1 1-2.3 3.7 1 6.5-1.2 4.1-1.5 8.5-1.4 0.8-2.5 2 1.2 1.4 0.5 3-1-2-2 0-1.9-1.6-1-4-0.5 0.5-1 1-0.3-4.4-4.5-5.5 5.1-3.3 0-7.5-1.4 1.3-2 3-1.3-0.5-1-2 0.1-1.9 2-2.5-4.7-0.7-5-5.5 3.6-3.3 8-5z"/>
	</g>
	<g id="Layer">
		<path id="Layer" fill-rule="evenodd" class="s210" d="m383.5 299.5q8 3.9 0 8-1.7-2.5-4-4.5 2.4-1.4 4-3.5z"/>
	</g>
	<g id="Layer">
		<path id="Layer" fill-rule="evenodd" class="s209" d="m298.5 281.5q1.8 0.6 3 2-1.5-0.1-2.5 1-0.5-1-1-2-0.9 2.1 0.5 4-0.5 1.8-1.5 0-1.3 2.4-2 5-2.1-1.6-4.5-0.5 1.4 0.6 2.5 1.5-0.2 2 0.5 3.5-1.1 1.9-2.5 3.5-0.5-0.5-1-1-1.2 2.3-3.5 3.5 1.4 0.7 3 0.5-0.3 2 1 3.5-1 1.6-1.5 3.5-2.5-1.7-4.5 1 1.9 2.7 4 5 0 0.5 0 1-2.8 0.9-5.5 1-1-2.6 0.5-5-1-0.5-2-1 1-4 0-7.5 3.6-1.5-1-2 1.7-2.7 3-5.5 4.7-0.5 4.5-5-1.1 1.4-2.5 0.5 2.5-2.2 2-5.5 1.9-0.1 2.5-2 1.5 2.5 3 5 1.9-3.4 3.5-7 0.7-1.2 2-1z"/>
	</g>
	<g id="Layer">
		<path id="Layer" fill-rule="evenodd" class="s211" d="m276.5 298.5q0 2.5 0 5 0 2.5 0 5-2 3 0 6 0.7-0.1 1 0.5-2.2 0.3-4 1.5 0.7 1.5 2 0 1 0.8 1.5 2 0.8-3.7 3.5-2 0 1 0 2-4.1 4.7-6 11-3.7 2.1-7.5 4-0.6-0.3-0.5-1 0.5-10.8-1-21 0.5-2.3 3-2 0-1.5 0-3-2.5-1-5-2 6.5-2.8 13-6z"/>
	</g>
	<g id="Layer">
		<path id="Layer" fill-rule="evenodd" class="s144" d="m279.5 291.5q3.7 0.9 4 5-1.3 2.8-3 5.5 4.6 0.5 1 2 1 3.5 0 7.5 1 0.5 2 1-1.5 2.4-0.5 5 2.7-0.1 5.5-1-0.5 7.5-7.5 10-0.7-4-0.5-8 2-1 0-2-2.7-1.7-3.5 2-0.5-1.2-1.5-2-1.3 1.5-2 0 1.8-1.2 4-1.5-0.3-0.6-1-0.5 0-3.1 1-6 0-1 0-2 1.4-1.6 1-4-0.4-5.1 2-9.5-0.8-0.6-1-1.5z"/>
	</g>
	<g id="Layer">
		<path id="Layer" fill-rule="evenodd" class="s212" d="m73.5 314.5q0.6 3.4-2 5-1.1-1.3-3-2-2.3 1.9-5 3-1.2-3.9-1.5-8-9.4-6.4 2.5-6.5 1.1-3.9 4-6.5 1.9 3.3 4 6.5 3.2 0.5 6 2-3.4 2.7-5 6.5z"/>
	</g>
	<g id="Layer">
		<path id="Layer" fill-rule="evenodd" class="s28" d="m435.5 299.5q2.8 2.2 4 6 3.8 0.9 7 3-1.5 2.8-4.5 4-0.3 4 0.5 8-3.7-0.4-6.5-3-2.6 1.7-5.5 3-0.5-0.8-1-1.5 1.4-3.2 0.5-6.5-7.5-6.1 2.5-7 1.5-3 3-6z"/>
	</g>
	<g id="Layer">
		<path id="Layer" fill-rule="evenodd" class="s131" d="m256.5 306.5q1.7 1.2 4 1.5-1.6 2.4-3 5-4.6 0.5-9-1.5-0.5 1-1 2-2.4-1.5-3 2 0.5 0.5 1 1 1-1 2-2 1.5 3.9 1 8 0 0.5 0 1-1.3 1.6-2.5 0-0.5-2-1-4-0.7 3.6-2.5 0.5 0-4 1-8.5-2 0-4 0 0-2.3 2-3.5-2.2-0.6-1.5-2.5 8.1 1.5 16.5 1z"/>
	</g>
	<g id="Layer">
		<path id="Layer" fill-rule="evenodd" class="s213" d="m276.5 308.5q0.5 0 1 0-1 2.9-1 6-2-3 0-6z"/>
	</g>
	<g id="Layer">
		<path id="Layer" fill-rule="evenodd" class="s214" d="m222.5 293.5q3.7 1.2 2 4.5 1.8 12.9 2.5-0.5 2.5 1.9 4.5 4-2 1-3.5 0-0.7 2.5-0.5 5-2 1.5 0 3 1.1 2.6 2 5.5-4 1.9-3 6.5-1.6-1.7-2.5-4-0.4 4.8-0.5 9-3.6-1.4-6.5-4-3.7-9.4-6.5-19 0.6-1.7 2-3 5.1 4.2 0 7.5 4.2 1.1 4.5 5.5 0.5-0.5 1-1-0.9 2.4 1 4 1-2 2 0 0.7-1.6-0.5-3 1.1-1.2 2.5-2 0.3-4.4 1.5-8.5-3.3-2.8-1-6.5-0.5-0.5-1-1-1.1 1.3-1.5 3-1.3-3.3 1.5-5z"/>
	</g>
	<g id="Layer">
		<path id="Layer" fill-rule="evenodd" class="s215" d="m231.5 301.5q-0.4 2.2 1 4 2.6-0.8 5-1 0.5 1.5 1 3-3.4 3.9-4 11-1.3-1.2-1-3-2-0.3-3.5 1-2.5 2.9-1 6-1-1.1-2.5-1-1-4.6 3-6.5-0.9-2.9-2-5.5 0-1.5 0-3-0.2-2.5 0.5-5 1.5 1 3.5 0z"/>
	</g>
	<g id="Layer">
		<path id="Layer" fill-rule="evenodd" class="s146" d="m239.5 311.5q2 0 4 0-1 4.5-1 8.5 1.8 3.1 2.5-0.5 0.5 2 1 4 1.2 1.6 2.5 0 0.2 7-0.5 14-3.1-1.5-6.5-2.5-2.9-9-4-18.5 0.8-2.7 2-5z"/>
	</g>
	<g id="Layer">
		<path id="Layer" fill-rule="evenodd" class="s140" d="m165.5 307.5q2.1 4.8 7 7.5-5.3 1.2-6.5 6.5-2-4.7-6.5-7 4.1-2.6 6-7z"/>
	</g>
	<g id="Layer">
		<path id="Layer" fill-rule="evenodd" class="s90" d="m263.5 304.5q2.5 1 5 2 0 1.5 0 3-2.5-0.3-3 2-0.3 3.5-1 7-1 8-2.5 16-3.3 2.4-7.5 2 0.2-7.5-0.5-15-0.8 5.5-2 11-1.8-5.2-3.5-10 0.5-4.1-1-8-1 1-2 2-0.5-0.5-1-1 0.6-3.5 3-2 0.5-1 1-2 4.4 2 9 1.5 1.4-2.6 3-5-2.3-0.3-4-1.5 0-0.5 0-1 3.5-0.3 7-1z"/>
	</g>
	<g id="Layer">
		<path id="Layer" fill-rule="evenodd" class="s216" d="m338.5 309.5q3.4 2 6 5.5-3.2 2.6-4.5 6.5-2.2-3.7-5.5-6.5 4.1-1.3 4-5.5z"/>
	</g>
	<g id="Layer">
		<path id="Layer" fill-rule="evenodd" class="s194" d="m407.5 299.5q-0.5 3.6 1 7 1.9-1.1 4-1-2.1 8.3-6 16-4.5 2-9 0 5.9-10.8 10-22z"/>
	</g>
	<g id="Layer">
		<path id="Layer" fill-rule="evenodd" class="s217" d="m73.5 314.5q1.4 2.6 1 6-1.9 0.4-3-1 2.6-1.6 2-5z"/>
	</g>
	<g id="Layer">
		<path id="Layer" fill-rule="evenodd" class="s218" d="m231.5 301.5q6.1 1.3 12 3.5 6.5 0.7 13 0.5 0 0.5 0 1-8.4 0.5-16.5-1-0.7 1.9 1.5 2.5-2 1.2-2 3.5-1.2 2.3-2 5-0.4 8.2-0.5 17-9.3-2.5-10.5-12 1.5-0.1 2.5 1-1.5-3.1 1-6 1.5-1.3 3.5-1-0.3 1.8 1 3 0.6-7.1 4-11-0.5-1.5-1-3-2.4 0.2-5 1-1.4-1.8-1-4z"/>
	</g>
	<g id="Layer">
		<path id="Layer" fill-rule="evenodd" class="s219" d="m265.5 311.5q1.5 10.2 1 21-1-7-2-14 0.7-3.5 1-7z"/>
	</g>
	<g id="Layer">
		<path id="Layer" fill-rule="evenodd" class="s117" d="m90.5 332.5q7.7-0.5 15 2 2.6 3 1 6-3.6 0.7-6.5 3-2.5-1-5-2-0.7 2.9 2.5 3.5-1.4 0.4-2 1.5-2.7-0.8-5 0-1.8-1.5-4-2.5 2-0.5 4-1-2.4-0.4-4.5-1.5-0.5 0.5-1 1 0.2-5 5.5-5.5-3.6-0.1-4-3.5 1.6-1.4 4-1z"/>
	</g>
	<g id="Layer">
		<path id="Layer" fill-rule="evenodd" class="s220" d="m415.5 333.5q15.6-2.9 28 7.5-4.5 7.5-9 15-4.1-0.5-8-3-4-0.7-8-0.5 0-0.5 0-1 3.6 0.5 7-1-3.2-2.1-5-5.5 3.7-3.1 8-5.5-1.5-1.4-3.5 0-2.6-2.7-5.5-5-1.8-1.4-4-1z"/>
	</g>
	<g id="Layer">
		<path id="Layer" fill-rule="evenodd" class="s221" d="m374.5 336.5q0 8 0 16-4.2 0.1-8-1.5 1.7-1 3-2.5 2.2 1.7 3-1.5 0.1-3.6-1-7.5-10.1-1.1-20 0-1.9-0.1-2.5-2-0.5 3-1 6-0.7-1.9-0.5-4-3.4-0.3-6.5-2-2 0.5-3.5 2-1.6-3.7-2.5 0-1.3-1.3-2.5-2.5 21-0.8 42-0.5z"/>
	</g>
	<g id="Layer">
		<path id="Layer" fill-rule="evenodd" class="s222" d="m374.5 336.5q1.5 8.7 1 18-6.5 0-13 0 6-1 12-2 0-8 0-16z"/>
	</g>
	<g id="Layer">
		<path id="Layer" fill-rule="evenodd" class="s223" d="m106.5 340.5q0.1 1.5-1 2.5 1.5 0.5 3 1-0.5 0.5-1 1 1.2 0.5 2 1.5-1.5-0.3-3 1.5 2.4 1.3 1 3 0.9 1.1 1.5 2.5 1.4-1.9 2.5-4 3.8 5.8-4 5-3.1-0.7-6-2-2.2-1.2-5-1.5-2.3-2.2-1-4.5 0.6-1.1 2-1.5-3.2-0.6-2.5-3.5 2.5 1 5 2 2.9-2.3 6.5-3z"/>
	</g>
	<g id="Layer">
		<path id="Layer" fill-rule="evenodd" class="s149" d="m303.5 337.5q-2.3 0-3.5 2-0.4-1.7-1.5-3-0.5 0.3-1 0.5 2 4.9-1 1.5-4.6-0.4-9 1.5 2 1.5 0 3 1.6 0.7 3-0.5 4.9 1.3 1 4 1.8 1.8 0 3.5 3.2 1.6 0.5 3.5-2.4-1.6-5-3 0.3-3.1-0.5-6 0 2.1-2 4.5 0.7 0.6 1 1.5-2.5 1.1-4.5 3 0.1-1.9-0.5-3-3.2 3.9-6 0 2 0.3 3.5-1 0-2.4-0.5-5 6.6-3.9 13-8.5 7-1.4 13 1.5z"/>
	</g>
	<g id="Layer">
		<path id="Layer" fill-rule="evenodd" class="s224" d="m351.5 339.5q9.9-1.1 20 0 1.1 3.9 1 7.5-0.8 3.2-3 1.5-1.3 1.5-3 2.5 3.8 1.6 8 1.5-6 1-12 2 0.5 25.8-1 51-9.5 0.2-19-0.5 0.1-10.9 0-22.5 1 0 1 1 0 8.5 0 17 2.7 1.7 6 0.5 1-1.6 1.5-3.5 0.3 3.6 1.5 7 2.4-1.2 5-1 1.9-7.4 3-15 0.9-16.6-2-32.5 3.6-1.5-1-2 1-0.5 2-1-0.8-2.5-3-4 1.7-0.4 3-1.5-0.3-0.5-0.5-1-3 1-6 2-3.5-3.7 1.5-5-1-1-2-2 0.8-0.5 1.5-1 2.1 1.7 3.5 4-0.6-1.8 2-2.5-3.5-2.9-8-2.5z"/>
	</g>
	<g id="Layer">
		<path id="Layer" fill-rule="evenodd" class="s182" d="m414.5 333.5q0.5 0 1 0 2.2-0.4 4 1 2.9 2.3 5.5 5 2-1.4 3.5 0-4.3 2.4-8 5.5 1.8 3.4 5 5.5-3.4 1.5-7 1-2.6 0.7-4.5 0-1.1 3.2-2.5 0.5 1.4-3.2 1.5-6.5-3.6-2-7.5-3.5 2.7-0.8 3.5-3.5 0.5 3.1 2.5 1 1.7-1.9 0-4 1.7-1 3-2z"/>
	</g>
	<g id="Layer">
		<path id="Layer" fill-rule="evenodd" class="s225" d="m303.5 337.5q18.6 5.1 23 24-1.9-0.8-2.5-3-0.5 1.2-1.5 2-1.4-2.8-1-6-1.4-2.1-3.5-4-0.5 1-1 2-2-0.4-4.5-0.5 1-0.5 2-1-2.1-0.6-4-1.5-0.4 1.1-1 2-1.2-1.1-1.5-3-0.5 0.5-1 1-1.5-2-3-4-0.5 0.5-1 1-0.5-1.5-1-3-1.1 5.1-6.5 4.5 4.5 0.2 8 3-2.9 1.4-5 4-1.9 0.7-4 0.5-3.5 0.3-7 1-2.8-1.9-5 1-2.8-0.9-5.5-2-0.5 1-1 2-1.5-2.2-4-3-1.5 1-3.5 0 0-2 0-4 3 0 6 0 2.8 3.9 6 0 0.6 1.1 0.5 3 2-1.9 4.5-3-0.3-0.9-1-1.5 2-2.4 2-4.5 0.8 2.9 0.5 6 2.6 1.4 5 3 2.7-1.9-0.5-3.5 1.8-1.7 0-3.5 3.9-2.7-1-4-1.4 1.2-3 0.5 2-1.5 0-3 4.4-1.9 9-1.5 3 3.4 1-1.5 0.5-0.3 1-0.5 1.1 1.3 1.5 3 1.2-2 3.5-2z"/>
	</g>
	<g id="Layer">
		<path id="Layer" fill-rule="evenodd" class="s193" d="m414.5 333.5q-1.3 1-3 2 1.7 2.1 0 4-2 2.1-2.5-1-0.8 2.7-3.5 3.5 3.9 1.5 7.5 3.5-0.1 3.3-1.5 6.5 1.4 2.7 2.5-0.5 1.9 0.7 4.5 0 0 0.5 0 1-4.2 1.4-4 6 1.2 3.5 2.5 7 0.5-0.5 1-1 1.5 2.7 4.5 3.5-2.6 3.4-7 4 1 0.5 2 1-0.5 1.5-1 3-4.3 0-8.5-1.5-0.4 1.4-1.5 2-15.8-7.5-12.5-25 4.9-15.1 20.5-18z"/>
	</g>
	<g id="Layer">
		<path id="Layer" fill-rule="evenodd" class="s226" d="m171.5 347.5q0.2 0.9 1 1.5-6.4 3.5-2 8.5-0.5 1.8-1.5 0-1.6 1.1-1.5 3-1-3.3-4-5.5-6-0.7-12-0.5 0.2-0.9 1-1.5 3.5-0.5 7-1-3.6-3.1 2-3-1.4-0.7-3-0.5 0.3-2.9 2.5-5 1 2.4-1.5 3.5 5 1.4 8.5-2.5 0.1 2.1 3.5 3z"/>
	</g>
	<g id="Layer">
		<path id="Layer" fill-rule="evenodd" class="s227" d="m379.5 327.5q6.5 1.1 13 2.5 1.7 6.6 0.5 13.5-4.7 7.2-10.5 13.5-3.5 0.8-4-3 2.1-5.2 5-10-2.3-1.5-5-1.5-0.4-7.6 1-15z"/>
	</g>
	<g id="Layer">
		<path id="Layer" fill-rule="evenodd" class="s199" d="m90.5 332.5q18.2-3.4 32.5 9-4.2 9-9.5 18-3.1-2.5-6-5 7.8 0.8 4-5-1.1 2.1-2.5 4-0.6-1.4-1.5-2.5 1.4-1.7-1-3 1.5-1.8 3-1.5-0.8-1-2-1.5 0.5-0.5 1-1-1.5-0.5-3-1 1.1-1 1-2.5 1.6-3-1-6-7.3-2.5-15-2z"/>
	</g>
	<g id="Layer">
		<path id="Layer" fill-rule="evenodd" class="s228" d="m172.5 338.5q0.5 0 1 0 0.1 1.5-1 2.5-3.3 0.3-6 2 1.6 0.7 3-0.5 1.9 2.9 5 4.5-1.9-0.2-3 0.5-3.4-0.9-3.5-3-3.5 3.9-8.5 2.5 2.5-1.1 1.5-3.5-2.2 2.1-2.5 5 1.6-0.2 3 0.5-5.6-0.1-2 3-3.5 0.5-7 1-0.8 0.6-1 1.5-1 5.8-2 12-1.2-4.8-1.5-10-2.5 1.4-5.5 1-2.7-3.2-2-7-5.5 1.1 0.5-2-0.5-2.2 0.5-4 1.2-1.8 2.5 0 0.5-1.9 1.5-3.5-0.5-0.5-1-1 1.5-1 3 0-1.8 1.5 1 1.5 2.5-1.2 4.5-3 10.2 0.7 19.5 0z"/>
	</g>
	<g id="Layer">
		<path id="Layer" fill-rule="evenodd" class="s229" d="m374.5 336.5q-21-0.3-42 0.5 1.3 1.3 2.5 2.5 0.9-3.7 2.5 0 1.5-1.5 3.5-2 3.1 1.7 6.5 2-0.2 2.1 0.5 4 0.5-3 1-6 0.6 1.9 2.5 2 0.2 3.8-2 7-3.3-0.3-7-0.5 1.4-2.4-2-2.5-2.5 0.6-5 1.5 0.9 1.1 1.5 2.5 1.6-1.5 3.5-0.5-1.6 3.1-5 4 1.9 1.8 4.5 2.5 2.7-1.9 5.5-2.5-1.4 4.1-1 8.5 0.3 2-1 3.5 3.6 4.6 0 9.5 1.4 5.4 0 11 0-1-1-1 0.5-14.3-1-28-7.6 0.5-15-1-5.2-8.4-7-18 27.8-0.5 55 1z"/>
	</g>
	<g id="Layer">
		<path id="Layer" fill-rule="evenodd" class="s230" d="m351.5 339.5q4.5-0.4 8 2.5-2.6 0.7-2 2.5-1.4-2.3-3.5-4-0.8 0.5-1.5 1 1 1 2 2-5 1.3-1.5 5 3-1 6-2 0.3 0.5 0.5 1-1.3 1.1-3 1.5 2.2 1.5 3 4-1 0.5-2 1 4.6 0.5 1 2 2.9 15.9 2 32.5-1.1-0.6-1.5-2-3.5 2.1-7.5 2 0.2 2.7-1 5-7.4 0.6-1-3.5-1.9-2.7 0-5.5 1.4 0.7 2.5 2 1.5-1.7 2 1 0.5-1 1-2 1.7 1.8 3.5 0 0.5-3.5 1-7 0-9.1-0.5-18-1.4 3.9-4 7-0.9-1.4 0.5-2.5-1.9-0.7-4-0.5 0.4 2.9-1 2-1.3-1-3-2 1.5-3.3-0.5-7-0.6 1.9-2.5 2-0.4-4.4 1-8.5-2.8 0.6-5.5 2.5-2.6-0.7-4.5-2.5 3.4-0.9 5-4-1.9-1-3.5 0.5-0.6-1.4-1.5-2.5 2.5-0.9 5-1.5 3.4 0.1 2 2.5 3.7 0.2 7 0.5 2.2-3.2 2-7z"/>
	</g>
	<g id="Layer">
		<path id="Layer" fill-rule="evenodd" class="s231" d="m86.5 333.5q0.4 3.4 4 3.5-5.3 0.5-5.5 5.5 0.5-0.5 1-1 2.1 1.1 4.5 1.5-2 0.5-4 1 2.2 1 4 2.5 2.3-0.8 5 0-1.3 2.3 1 4.5 2.8 0.3 5 1.5-8.9-1.1-16 4-1.4-2.7-3.5-5-1.7 1.7-2.5-1 3-1.3 6-2.5-2-1.5-4-3 0.3-3.8 4-7-3.3-1.2-5.5 1.5-1-1-2-2-1 1.1-2.5 1 4.5-4.5 11-5z"/>
	</g>
	<g id="Layer">
		<path id="Layer" fill-rule="evenodd" class="s232" d="m222.5 348.5q-1.2 1.1-1.5 3-4-0.2-8.5-0.5 1-0.5 2-1-3.8-0.1-6.5-2.5-0.5 0.5-1 1-0.7-1.9 1.5-2.5-1.1-2.1-1.5-4.5-1.1 4.5-5.5 6-6.4 1.2-6.5 8-0.5-0.5-1-1-2.6 1.4-5.5 2 5.4-14.1 19.5-20 6.9 6.6 14.5 12z"/>
	</g>
	<g id="Layer">
		<path id="Layer" fill-rule="evenodd" class="s233" d="m85.5 356.5q-2.1 0.2-4-0.5 3.6-1.2-0.5-2.5-1.6 4.8-4.5 9-1.3-1.5-3-2.5 1-0.5 2-1-2.2-1.5-4-3.5 1.3-0.3 3-1-0.8-1-2-1.5 3-2 5-5-2.2-0.3-4-1.5 1-4 2-8 1.5 0.1 2.5-1 1 1 2 2 2.2-2.7 5.5-1.5-3.7 3.2-4 7 2 1.5 4 3-3 1.3-6 2.5 0.8 2.7 2.5 1 2.1 2.3 3.5 5z"/>
	</g>
	<g id="Layer">
		<path id="Layer" fill-rule="evenodd" class="s232" d="m131.5 336.5q16.2-1.7 33-0.5 4.5 0.1 8 2.5-9.3 0.7-19.5 0-2 1.8-4.5 3-2.8 0-1-1.5-1.5-1-3 0 0.5 0.5 1 1-1 1.6-1.5 3.5-1.3-1.8-2.5 0-1 1.8-0.5 4-6 3.1-0.5 2-0.7 3.8 2 7 3 0.4 5.5-1 0.3 5.2 1.5 10 1-6.2 2-12 0 7.5 0 15 4.5 0 9 0 0.3 2.4-1.5 4-0.7-3.6-2.5-0.5 1.5 1.5 3 3-1.4 0.9-2.5-0.5-1 2-2 4-0.4-5.2-4-1-1.3-2.2-2.5-1-2.6-0.2-5-1-0.6-1.8-2-3-1.6-0.1-3-1-1.3 1.5-2.5 3 0.6-3.6 0-7 1.1 2.6 3.5 2.5-0.4-5.7-2-13 2-1 0-2 1-0.5 2-1-1.7-2.8-5-2.5 0.8 4.3-2 7-0.8-8.8 2-17-3.6-1.7 1-5.5-1.9-0.7-4-0.5z"/>
	</g>
	<g id="Layer">
		<path id="Layer" fill-rule="evenodd" class="s234" d="m173.5 338.5q3.7 1.9 7 4.5 2 1.2 2 3.5 0 6-2 11.5 1.9 0.7 2.5-1.5 0.4 3.4-1.5 6.5 1.1 4.6 3.5 0.5 1 0.8 1.5 2-3 0.5-6 3-2.3-2.6-2.5-8-1.1 1.4-2.5 0.5 0.9-2.8 1-5.5-1.2-1.3-3-1 0.2 2.1-0.5 4-0.5-0.5-1-1-3.5 3.4 1.5 3.5-3.1 0.7-6-0.5-0.1-1.9 1.5-3 1 1.8 1.5 0-4.4-5 2-8.5-0.8-0.6-1-1.5 1.1-0.7 3-0.5-3.1-1.6-5-4.5-1.4 1.2-3 0.5 2.7-1.7 6-2 1.1-1 1-2.5z"/>
	</g>
	<g id="Layer">
		<path id="Layer" fill-rule="evenodd" class="s223" d="m321.5 354.5q-2.1-0.2-4 0.5 2 2.1-1 3 1 0.5 2 1-2 1 0 2 1.5 0.5 3 1-0.5 3.1-0.5 6.5-4.8 1.7-6 5-0.8-0.5-1.5-1 0.9-1.4 1-3-1.2-4.4-3-9 0.7-2.8 1-5.5-1.5-0.5-3-1 1.6-1.2 0-2.5 0.6-0.9 1-2 1.9 0.9 4 1.5-1 0.5-2 1 2.5 0.1 4.5 0.5 0.5-1 1-2 2.1 1.9 3.5 4z"/>
	</g>
	<g id="Layer">
		<path id="Layer" fill-rule="evenodd" class="s117" d="m201.5 347.5q-1.6 1.3 0 2.5-2.3 0.9-4 2.5 2.2-0.3 4 2.5-1.7 1.1 0 2.5-3.2 4.1-6 8.5 1.4 4-3 1.5-1.2 2.8-3 5-0.6-3.8-1-8 0.7-2.4 2-4.5-0.7-2-2-3.5 2.9-0.6 5.5-2 0.5 0.5 1 1 0.1-6.8 6.5-8z"/>
	</g>
	<g id="Layer">
		<path id="Layer" fill-rule="evenodd" class="s235" d="m222.5 348.5q14.4 5.9 30 6 0.9 1.4 1 3-2.3 0-3.5 2-3.9-5-9.5-2.5 1.7 2.2 3 4-2.4 1.6-3 4.5-2.3 1.4-5 1-7.7-15.3-23-8 0.2-1.1-0.5-2-1.3 1.8-2.5 0 0.9-1.9 1.5-4 6.1 1.7 12.5 0.5-1.3-2-1-4.5z"/>
	</g>
	<g id="Layer">
		<path id="Layer" fill-rule="evenodd" class="s236" d="m253.5 357.5q-0.1 3 0 6 0.5 1.8 1.5 0 0.5 3 2.5 5-0.3 5.9-4 2-2.1 0.8-2 3-2.4-1.8-2.5-5-1.2 4.3-1 8-4.6-3.3-8.5-0.5 1.2 0.5 2 1.5-7.2 4.9-4-3.5-0.9-3.4-2-6.5 0-0.5 0-1 2.7 0.4 5-1 0.6-2.9 3-4.5-1.3-1.8-3-4 5.6-2.5 9.5 2.5 1.2-2 3.5-2z"/>
	</g>
	<g id="Layer">
		<path id="Layer" fill-rule="evenodd" class="s232" d="m222.5 348.5q-0.3 2.5 1 4.5-6.4 1.2-12.5-0.5-0.6 2.1-1.5 4 1.2 1.8 2.5 0 0.7 0.9 0.5 2-6.7 7.1-5 17-1-3.8-2-8-1.8-2-3 0.5 2 2.8-0.5 1.5-0.8 0.8-1.5 1.5 7.5 1.8-1 2.5 0.2-3.2-1.5-6-1.6 5.3-5 2-0.7 1.4-0.5 3-1.5 0-3 0 1.8-2.2 3-5 4.4 2.5 3-1.5 2.8-4.4 6-8.5-1.7-1.4 0-2.5-1.8-2.8-4-2.5 1.7-1.6 4-2.5-1.6-1.2 0-2.5 4.4-1.5 5.5-6 0.4 2.4 1.5 4.5-2.2 0.6-1.5 2.5 0.5-0.5 1-1 2.7 2.4 6.5 2.5-1 0.5-2 1 4.5 0.3 8.5 0.5 0.3-1.9 1.5-3z"/>
	</g>
	<g id="Layer">
		<path id="Layer" fill-rule="evenodd" class="s7" d="m277.5 344.5q0.5 2.6 0.5 5-1.5 1.3-3.5 1-3 0-6 0 0 2 0 4-2-2.9-4-0.5 1 0.5 2 1-0.9 2.8-1 5.5 3.4 3-1.5 1-1.1 0.9-2.5 1.5-0.7 1.5-0.5 3.5-1.5 0.8-2.5 2-0.5 0-1 0-2-2-2.5-5-1 1.8-1.5 0-0.1-3 0-6 2.5 3 3.5 7 1.8-8 6.5-14.5 7.1-2.6 14-5.5z"/>
	</g>
	<g id="Layer">
		<path id="Layer" fill-rule="evenodd" class="s237" d="m75.5 338.5q-1 4-2 8 1.8 1.2 4 1.5-2 3-5 5 1.2 0.5 2 1.5-1.7 0.7-3 1 1.8 2 4 3.5-1 0.5-2 1 1.7 1 3 2.5 2.9-4.2 4.5-9 4.1 1.3 0.5 2.5 1.9 0.7 4 0.5-4.7 6.4-6 14-2 0-4 0 0 1.5 0 3-3.3-0.3-5 2.5 3.3-0.9 6 1-1.5 0.5-3 1 1.5 1.6 0.5 3.5-1.8-7.2-5.5-0.5 0.6 1.4 2 2-3.3 3.6-7 8.5-3.5-4.8-4.5-11-4.1-24.8 14.5-41.5 0.9-0.7 2-0.5z"/>
	</g>
	<g id="Layer">
		<path id="Layer" fill-rule="evenodd" class="s238" d="m268.5 354.5q2 1 3.5 0 2.5 0.8 4 3 0.5-1 1-2 2.7 1.1 5.5 2 2.2-2.9 5-1-12.8 8.4-7 23-3.3-1.9-6-4.5 0.7-2.6 1.5 0.5 3.3-2.3-0.5-3.5 0.7-2.6 0-4.5 1.4-1.6 1-4-1.5 0-3 0 0.2-3.7-2.5-2-1.9-2-0.5-4-1.7-1.1-2-3z"/>
	</g>
	<g id="Layer">
		<path id="Layer" fill-rule="evenodd" class="s3" d="m309.5 351.5q1.6 1.3 0 2.5 1.5 0.5 3 1-0.3 2.7-1 5.5 1.8 4.6 3 9-1.9-0.3-3-2-2 2.1-2.5-1-3.1 3.3 0.5 6-0.8 1.9-2 3.5 0.9 0.7 2 0.5-0.7 4-3.5 7-2.5-0.4-4.5 2-1.1 1.6-3 2 0-2-2-2 16.6-9.8 5.5-26-3.4-3-7.5-4 2.1 0.2 4-0.5 2.1-2.6 5-4-3.5-2.8-8-3 5.4 0.6 6.5-4.5 0.5 1.5 1 3 0.5-0.5 1-1 1.5 2 3 4 0.5-0.5 1-1 0.3 1.9 1.5 3z"/>
	</g>
	<g id="Layer">
		<path id="Layer" fill-rule="evenodd" class="s239" d="m125.5 399.5q0-1.5 0-3 0-12 0-24 0-3 0-6-7.7-0.9-14.5 2-0.5-0.5-1-1-2 4.2-6.5 2.5 1.4-1.1 0.5-2.5-2 2.1-4 1-1 1.5 0 3 0.5-0.5 1-1 1.6 1.7 2.5 4-2.1-0.6-3 2.5 1.4 0.9 2.5-0.5 0.3 1.9 1.5 3 0.2 1.3-1 2-3.2-2.4-7-1.5 1.9 0.6 2 2.5-2 0-4 0-2-8.1 0-16.5 16-0.8 32-0.5 0.5 17.3-1 34z"/>
	</g>
	<g id="Layer">
		<path id="Layer" fill-rule="evenodd" class="s240" d="m268.5 354.5q0.3 1.9 2 3-1.4 2 0.5 4 2.7-1.7 2.5 2 1.5 0 3 0 0.4 2.4-1 4 0-1.5 0-3-2 0-4 0 1.5 5.5 0 11 6 5.2-1 9.5 2.6 4.9 4.5-0.5 0.8 4.5 4.5 3 0.8 1.9 3 2.5-1.4 0.6-2.5 1.5-3.8-0.1-7.5 0-0.4-2.1-2.5-3-0.5 1-1 2-0.9-2.1 0.5-4-1.9-1.3-3.5-3 1.1-3.2 1.5-6-1.8-1.7-4-0.5 0.5 0.5 1 1-1.8 3.8-3 6.5-0.8-2.7-3-4-0.4-2.7 1-5 0.3 1.3 1 3 1.4-2 2-4.5-1.2-0.8-3-2 0.5-0.5 1-1-1.3-1.1-2-2.5 1-1.2 2.5-2-0.2-2 0.5-3.5 1.4-0.6 2.5-1.5 4.9 2 1.5-1 0.1-2.7 1-5.5-1-0.5-2-1 2-2.4 4 0.5z"/>
	</g>
	<g id="Layer">
		<path id="Layer" fill-rule="evenodd" class="s241" d="m180.5 368.5q2.8 1 6 0.5 0.7 0.6 1 1.5-1.7 1-3 2-1.1 4.2-5 6-2-2.5 0-5-0.5-1.2-1.5-2-1.3 1.8-2.5 0-2-9.7-9-3 0.8 1.5 1.5 3 1.6-1.2 3.5 0.5-1.9 0.7-4 0.5 0.2 1.6-0.5 3 0.1-5-4.5-6 5-2.9 5-9 2.9 1.2 6 0.5-5-0.1-1.5-3.5 0.5 0.5 1 1 0.7-1.9 0.5-4 1.8-0.3 3 1-0.1 2.7-1 5.5 1.4 0.9 2.5-0.5 0.2 5.4 2.5 8z"/>
	</g>
	<g id="Layer">
		<path id="Layer" fill-rule="evenodd" class="s240" d="m321.5 354.5q-0.4 3.2 1 6 1-0.8 1.5-2 0.6 2.2 2.5 3 0 1 0 2 0 5 0 10-3.1 0-5.5 2-0.8-0.3-1.5-0.5 1.4-1.1 0.5-2.5-1-2-2 0-0.7 1.6 0.5 3 3.5 1.7 7 3.5-1.5 0.8-3 1.5 0.6-2.1-2.5-3-1 4-2 0-1.5 1-3 2-0.8-3.6-3.5-6-2.1 0.8-2 3-1.1 0.2-2-0.5 1.2-1.6 2-3.5-3.6-2.7-0.5-6 0.5 3.1 2.5 1 1.1 1.7 3 2-0.1 1.6-1 3 0.8 0.5 1.5 1 1.2-3.3 6-5 0-3.4 0.5-6.5-1.5-0.5-3-1-2-1 0-2-1-0.5-2-1 3-0.9 1-3 1.9-0.7 4-0.5z"/>
	</g>
	<g id="Layer">
		<path id="Layer" fill-rule="evenodd" class="s92" d="m414.5 358.5q2.2 1.4 4 3.5 8.6 1.5 16 5.5-3.1 0.4-6.5 1-1.6 1.3-1.5 3-1-1-2-2-3.3 2.7-3.5 7-0.5-1.5-1-3-1.2 5.3 4.5 5.5-3.3 1.1-1 3.5-8.8-2.4-17-6 1.1-0.6 1.5-2 4.2 1.5 8.5 1.5 0.5-1.5 1-3-1-0.5-2-1 4.4-0.6 7-4-3-0.8-4.5-3.5-0.5 0.5-1 1-1.3-3.5-2.5-7z"/>
	</g>
	<g id="Layer">
		<path id="Layer" fill-rule="evenodd" class="s242" d="m257.5 368.5q0.5 0 1 0 0.7 1.4 2 2.5-0.5 0.5-1 1 1.8 1.2 3 2-0.6 2.5-2 4.5-0.7-1.7-1-3-1.4 2.3-1 5 0 0.5 0 1-1.2-3.2-1.5-7-2.5 14.5-13.5 24-0.2-2.4 2-3.5-3.6-3.9-0.5-8.5 1.1 1.7 2.5 0 2.3 3.9 2-1 3.7 0.2 2-2.5 3.4-2.2 0-5 1-0.5 2-1-0.9-2-2-3.5-0.1-2.2 2-3 3.7 3.9 4-2z"/>
	</g>
	<g id="Layer">
		<path id="Layer" fill-rule="evenodd" class="s243" d="m349.5 384.5q2.2-6.7-1-13 0.8-2.8 2-5 1.4 0.9 1-2 2.1-0.2 4 0.5-1.4 1.1-0.5 2.5 2.6-3.1 4-7 0.5 8.9 0.5 18-0.5 3.5-1 7-1.8 1.8-3.5 0-0.5 1-1 2-0.5-2.7-2-1-1.1-1.3-2.5-2z"/>
	</g>
	<g id="Layer">
		<path id="Layer" fill-rule="evenodd" class="s234" d="m141.5 373.5q-2.2 1.8-5 3-4 4.6 1 7.5-0.1 4.2-1 8 0.9 3.1 3 2.5-0.8 0.5-1.5 1-1.5-0.8-2.5-2-1.1-1.4-3-1 0.1-9.8 0.5-20 1.3 5.9 1.5-0.5-2.2-6.1-2-12.5 2.8-2.7 2-7 3.3-0.3 5 2.5-1 0.5-2 1 2 1 0 2 1.6 7.3 2 13-2.4 0.1-3.5-2.5 0.6 3.4 0 7 1.3-1.5 2.5-3 1.4 0.9 3 1z"/>
	</g>
	<g id="Layer">
		<path id="Layer" fill-rule="evenodd" class="s182" d="m179.5 378.5q-1.5 0-3 0 0.3 4.9-3.5 8-2.7-2.5 1.5-3.5-0.7-1.5-0.5-3.5-2.5 1.8-4.5 4-0.2-2.1-0.5-5-2 3.8-3.5 0-1 2-2 4 0.8-4.3-2.5-8 0.7 4.4 0.5 8.5-3.7 0.9 0 2.5-0.5 1-1 2-2.8-4-8-3 0.2-2.5-0.5-5-1.1 1.3-2.5 2 0.1-2.2-1-4 1.2-1.2 2.5 1 3.6-4.2 4 1 1-2 2-4 1.1 1.4 2.5 0.5-1.5-1.5-3-3 1.8-3.1 2.5 0.5 1.8-1.6 1.5-4 1 0 2 0 4.6 1 4.5 6 0.7-1.4 0.5-3 2.1 0.2 4-0.5-1.9-1.7-3.5-0.5-0.8-1.5-1.5-3 7-6.7 9 3 1.2 1.8 2.5 0 1 0.8 1.5 2-2 2.5 0 5z"/>
	</g>
	<g id="Layer">
		<path id="Layer" fill-rule="evenodd" class="s131" d="m434.5 367.5q0.9 2.8 1 5.5-0.9 1.1-1.5 2.5-0.4-1.7-1.5-3-0.5 2.3-1 4.5-0.4 4.6 2 6-5.4 9.4-3-1-4-1 0-2-1.1-2.2-2.5-0.5-0.7-1.9-0.5-4-1.8-0.3-3 1 1.2 2.3 3 5-2 0.4-4 1-2.3-2.4 1-3.5-5.7-0.2-4.5-5.5 0.5 1.5 1 3 0.2-4.3 3.5-7 1 1 2 2-0.1-1.7 1.5-3 3.4-0.6 6.5-1z"/>
	</g>
	<g id="Layer">
		<path id="Layer" fill-rule="evenodd" class="s244" d="m207.5 375.5q7 14.3 22 8-1 1.8-0.5 4-2.8-2-1.5 0.5-1.7 1-3 2.5-3.3-0.2-7 1 0.5-2.9 0-5-1.1 2.2-3 3.5 1 0.5 2 1-2.4 0.4-3 2.5-2.9-2.7-6.5-5-0.5 1.2-1.5 2-1.4-2.3-1-5-2.5-0.3-4.5 1-2.1-1.6-3-4-0.7 3.2-2.5 4-1.5-1.9-3-4 1.2-1.4 0.5-3-1 1.8-1.5 0 0.7-1.5 2-2.5-2.2-1.8-4-1.5 0.9-1.4 1-3 1.5 0 3 0-0.2-1.6 0.5-3 3.4 3.3 5-2 1.7 2.8 1.5 6 8.5-0.7 1-2.5 0.8-0.8 1.5-1.5 2.5 1.3 0.5-1.5 1.2-2.5 3-0.5 1 4.2 2 8z"/>
	</g>
	<g id="Layer">
		<path id="Layer" fill-rule="evenodd" class="s105" d="m79.5 370.5q1.1 3.9 1 8-0.3 2.5 1 4.5-1 0.5-2 1 2.3 2.8 2 6.5-2 0-4 0-1.5-5.6-4 0.5 0.5 0.5 1 1-2.9 2.7-5.5-0.5-1 1-2 2-1.2-2-3.5-2 3.7-4.9 7-8.5-1.4-0.6-2-2 3.7-6.7 5.5 0.5 1-1.9-0.5-3.5 1.5-0.5 3-1-2.7-1.9-6-1 1.7-2.8 5-2.5 0-1.5 0-3 2 0 4 0z"/>
	</g>
	<g id="Layer">
		<path id="Layer" fill-rule="evenodd" class="s245" d="m125.5 372.5q-0.3 5.8-5 9.5 1 1 2 2-2.9 0.3-4.5 2.5-0.1-5.9-3-11-0.7 1.4-0.5 3-5.5 0.3-10 1-1.2-1.1-1.5-3-1.1 1.4-2.5 0.5 0.9-3.1 3-2.5-0.9-2.3-2.5-4-0.5 0.5-1 1-1-1.5 0-3 2 1.1 4-1 0.9 1.4-0.5 2.5 4.5 1.7 6.5-2.5 0.5 0.5 1 1 6.8-2.9 14.5-2 0 3 0 6z"/>
	</g>
	<g id="Layer">
		<path id="Layer" fill-rule="evenodd" class="s246" d="m131.5 336.5q2.1-0.2 4 0.5-4.6 3.8-1 5.5-2.8 8.2-2 17-0.2 6.4 2 12.5-0.2 6.4-1.5 0.5-0.4 10.2-0.5 20 1.9-0.4 3 1-1.5 0-3 0-1.7 14.5 11.5 9 1 1 2 2 3-1.3 4.5-4 0 2.5 0 5-9.5 0-19 0-2-34.5 0-69z"/>
	</g>
	<g id="Layer">
		<path id="Layer" fill-rule="evenodd" class="s247" d="m350.5 366.5q-1.2 2.2-2 5 3.2 6.3 1 13-1.9 2.8 0 5.5-6.4 4.1 1 3.5 0.7-0.1 1 0.5-2.4 0.7-4 2.5-0.5-1-1-2-1.7 2.3 1 4-1.5 3.8-2.5 0-0.4 1.4-1.5 2 0-8.5 0-17 1.4-5.6 0-11 3.6-4.9 0-9.5 1.3-1.5 1-3.5 1.9-0.1 2.5-2 2 3.7 0.5 7 1.7 1 3 2z"/>
	</g>
	<g id="Layer">
		<path id="Layer" fill-rule="evenodd" class="s248" d="m235.5 367.5q1.1 3.1 2 6.5-3.2 8.4 4 3.5-0.8-1-2-1.5 3.9-2.8 8.5 0.5-0.2-3.7 1-8 0.1 3.2 2.5 5 1.1 1.5 2 3.5-1 0.5-2 1 3.4 2.8 0 5 1.7 2.7-2 2.5 0.3 4.9-2 1-1.4 1.7-2.5 0-3.1 4.6 0.5 8.5-2.2 1.1-2 3.5-13.6 11.7-31 7 6.5 0 13 0-0.3-3.7 3-5.5-0.7-0.6-1-1.5 1.9-3.9 3-8 0.9 0.3 1.5 1 0.5-2.3 2.5-3.5 0.7-2.3-2-3.5 0.3-0.9 1-1.5-2-0.3-4 0.5 6.8-6.5 6-16z"/>
	</g>
	<g id="Layer">
		<path id="Layer" fill-rule="evenodd" class="s249" d="m434.5 367.5q12.3 5.7 13 19.5-0.1 12-10 18.5-1.9-1.9 1-3-3.9-2.1 1-2.5-5.5-0.6-0.5-2.5 0.5-3.1 1.5-6-1-5 0-10.5-7 0.5-1 4-1.8 1.5-4 1.5 2.3 1.5 1.5 4-1.5-2.2-3.5-4-2.1 2-5 2.5 1.5 0.5 3 1-3.2 2.1-7 2.5-1.3-0.9-3-1 6.5-3.3 2-9 2-0.6 4-1-1.8-2.7-3-5 1.2-1.3 3-1-0.2 2.1 0.5 4 1.4-1.7 2.5 0.5-4 1 0 2-2.4 10.4 3 1-2.4-1.4-2-6 0.5-2.3 1-4.5 1.1 1.3 1.5 3 0.6-1.4 1.5-2.5-0.1-2.7-1-5.5z"/>
	</g>
	<g id="Layer">
		<path id="Layer" fill-rule="evenodd" class="s250" d="m160.5 387.5q5 2 3 7 2.9 1.1 1 3-3.8-5.1-7-11-2.8-1.4-6-1-1.5 6.2-1 13-3.4 0.4-3.5 4-0.7-2.1-2.5-3.5 1.4-0.7 3-0.5 0-2 0-4-3.9 1.2-7-0.5 0.8-0.6 1-1.5 0.9-0.2 1.5-1 1.7 3 4.5 1-1.5-1.3 0-2 1.2 3.4 1.5 7 1.4-6.3-1-12 0.4 2.2-0.5 4-1.8-0.6-3-2 2-1.5 0-3 1.8 0.3 4-1.5-3.6-1.6 1-1.5 1.4-0.7 2.5-2 0.7 2.5 0.5 5 5.2-1 8 3z"/>
	</g>
	<g id="Layer">
		<path id="Layer" fill-rule="evenodd" class="s251" d="m94.5 382.5q2 0 4 0 4 0 8 0 0.5 3.8-1 7 0-3 0-6-5.8 0.5-11-1z"/>
	</g>
	<g id="Layer">
		<path id="Layer" fill-rule="evenodd" class="s252" d="m182.5 346.5q1.9 0.8 2.5 3 1.6 4.9 2 10 0.3-1.9 1.5-3 1.3 1.5 2 3.5-1.3 2.1-2 4.5 0.4 4.2 1 8-0.1 1.6-1 3 1.8-0.3 4 1.5-1.3 1-2 2.5 0.5 1.8 1.5 0 0.7 1.6-0.5 3 1.5 2.1 3 4 1.3 1.8 3 3.5-3.3 0.9-0.5 3.5 1.6 1 3.5 1.5-1.4 1.1-0.5 2.5 2.5 1.4 5.5 1 0.2-2.4-2-3.5 2.7-0.5 1-2 1.5-1 3 0 1.6 3.2 0 6.5 0.6 2.7 2 5-16.3-5.6-22.5-22-1.1-5.2-2.5-10 1.3-1 3-2-0.3-0.9-1-1.5-3.2 0.5-6-0.5 3-2.5 6-3-0.5-1.2-1.5-2-2.4 4.1-3.5-0.5 1.9-3.1 1.5-6.5-0.6 2.2-2.5 1.5 2-5.5 2-11.5z"/>
	</g>
	<g id="Layer">
		<path id="Layer" fill-rule="evenodd" class="s253" d="m326.5 363.5q4.1 16.9-6.5 31-4.2 4.4-9.5 7 0.8-4.3 5-6-0.7-2.1-2-4-1.9 1.6-4.5 2-3.9-1.2-7.5-0.5 1.5-1.3 3-2.5-1-0.5-2-1 1.6-3 5-4-0.3-0.5-0.5-1-3 0.7-5 3-0.7-0.9-0.5-2 2-2.4 4.5-2 2.8-3 3.5-7-0.1-2.2 2-3 2.7 2.4 3.5 6 1.5-1 3-2 1 4 2 0 3.1 0.9 2.5 3 1.5-0.8 3-1.5-3.5-1.8-7-3.5-1.2-1.4-0.5-3 1-2 2 0 0.9 1.4-0.5 2.5 0.8 0.3 1.5 0.5 2.4-2 5.5-2 0-5 0-10z"/>
	</g>
	<g id="Layer">
		<path id="Layer" fill-rule="evenodd" class="s41" d="m143.5 376.5q2.4 0.8 5 1 1.1 1.8 1 4-4.6-0.1-1 1.5-2.2 1.8-4 1.5 2 1.5 0 3 1.2 1.4 3 2 0.9-1.8 0.5-4 2.4 5.7 1 12-0.3-3.6-1.5-7-1.5 0.7 0 2-2.8 2-4.5-1-0.6 0.8-1.5 1-2.8 0.2-1-1.5-1.4-0.6-2-2 0.2-3.7 0-7.5 2.3-2 2-5 1.5 0 3 0z"/>
	</g>
	<g id="Layer">
		<path id="Layer" fill-rule="evenodd" class="s254" d="m341.5 354.5q1.5 13.7 1 28 0.1 11.6 0 22.5 9.5 0.7 19 0.5-9.7 1.5-20 1 0-26 0-52z"/>
	</g>
	<g id="Layer">
		<path id="Layer" fill-rule="evenodd" class="s255" d="m275.5 367.5q0.7 1.9 0 4.5 3.8 1.2 0.5 3.5-0.8-3.1-1.5-0.5 2.7 2.6 6 4.5 1.4 1.2 2 3 0.6 4.2 1.5 8-1.4-2.8-4.5-3-3.7 1.5-4.5-3-1.9 5.4-4.5 0.5 7-4.3 1-9.5 1.5-5.5 0-11 2 0 4 0 0 1.5 0 3z"/>
	</g>
	<g id="Layer">
		<path id="Layer" fill-rule="evenodd" class="s249" d="m272.5 391.5q-0.8 0.1-1 1 3.6 3.4 0 7-9.9-6.4-13-18 0-0.5 0-1 2.2 1.3 3 4 1.2-2.7 3-6.5-0.5-0.5-1-1 2.2-1.2 4 0.5-0.4 2.8-1.5 6 1.6 1.7 3.5 3-1.4 1.9-0.5 4 0.5-1 1-2 2.1 0.9 2.5 3z"/>
	</g>
	<g id="Layer">
		<path id="Layer" fill-rule="evenodd" class="s168" d="m125.5 372.5q0 12 0 24-3.9-2.1-7.5-5-0.8 3.7-3.5 2 0.8-4.8 1-8.5-1.5-1-3 0 1.7 1.4-0.5 2.5-1.6-2.7-4.5-1.5 1.4 0.7 3 0.5 0 1.5 0 3-1.6-0.2-3 0.5 2.1 1.3-0.5 1.5-1.5-0.5-1.5-2 1.5-3.2 1-7-4 0-8 0-0.1-1.9-2-2.5 3.8-0.9 7 1.5 1.2-0.7 1-2 4.5-0.7 10-1-0.2-1.6 0.5-3 2.9 5.1 3 11 1.6-2.2 4.5-2.5-1-1-2-2 4.7-3.7 5-9.5z"/>
	</g>
	<g id="Layer">
		<path id="Layer" fill-rule="evenodd" class="s256" d="m80.5 378.5q3.5 8.5 12 12-2-0.3-3.5 1-1.6-2.7-4.5-1.5-1.8 2.5-2.5 5.5-1.8-1.6-1.5-4-1.5 0-3 0 0.4 3-1 5.5 2 0.5 4 1-2 1.5 0 3-7.8 3.1 0 1.5 1-1.5 2-3 2.5 1.8 5 3-0.8 1.9-3 2.5 1 2 3 3-1.4 0.4-2 1.5-16-3-22-18 2.3 0 3.5 2 1-1 2-2 2.6 3.2 5.5 0.5-0.5-0.5-1-1 2.5-6.1 4-0.5 2 0 4 0 0.3-3.7-2-6.5 1-0.5 2-1-1.3-2-1-4.5z"/>
	</g>
	<g id="Layer">
		<path id="Layer" fill-rule="evenodd" class="s166" d="m406.5 387.5q2.8 3.4 3.5 8 0.7-1.4 0.5-3 2 0.3 3.5-1 0.1 4.6 4 7 1.2-3.6 2.5 0.5-3.2 2.5-6 5.5 0.9 1.9 3 2.5-2.7 0.5-1 2-3 0.7-6 0.5 0.6-2.2 1-4.5-2.7-4.4-6-8.5 3.5-2.7-1-5-2 1.5-4 3-0.5-0.5-1-1 1.5-4.1 4.5-7 0.5 3.2 2.5 1z"/>
	</g>
	<g id="Layer">
		<path id="Layer" fill-rule="evenodd" class="s118" d="m179.5 378.5q-2.4 2-1.5 5 7.1 9.8 13.5 20-10.9 2.9-23 2-2.7-3.7-4-8 1.9-1.9-1-3 2-5-3-7 0.5-1 1-2-3.7-1.6 0-2.5 0.2-4.1-0.5-8.5 3.3 3.7 2.5 8 1-2 2-4 1.5 3.8 3.5 0 0.3 2.9 0.5 5 2-2.2 4.5-4-0.2 2 0.5 3.5-4.2 1-1.5 3.5 3.8-3.1 3.5-8 1.5 0 3 0z"/>
	</g>
	<g id="Layer">
		<path id="Layer" fill-rule="evenodd" class="s92" d="m282.5 382.5q3.1 1.5 6 3-0.8 0.1-1 1 1.5 2 3 4-3.8 1.5 0 3.5-1.9 1.3-3 3.5-1.7-1.6-3 0 1 1.5 2 3 1.8 4.4 6 3 4.1 2.6 9 2-9.2 1.7-19 0.5-6.5-1.8-11-6.5 3.6-3.6 0-7 0.2-0.9 1-1 3.7-0.1 7.5 0 1.1-0.9 2.5-1.5-2.2-0.6-3-2.5 3.1 0.2 4.5 3-0.9-3.8-1.5-8z"/>
	</g>
	<g id="Layer">
		<path id="Layer" fill-rule="evenodd" class="s257" d="m114.5 393.5q-2.9 1.9-5 5-3.9-2.5 1-4 1.5-1.3 0-2-2.5 1.2-5 0.5 2.2 1.7-0.5 2.5-1.2-0.2-2-1-3.2 2.7-7.5 2-1.3 0.2-2-1 1.8-1.2 4-1.5-3.7-0.3-5-3.5 6.4 1 13-1 0 1.5 1.5 2 2.6-0.2 0.5-1.5 1.4-0.7 3-0.5 0-1.5 0-3-1.6 0.2-3-0.5 2.9-1.2 4.5 1.5 2.2-1.1 0.5-2.5 1.5-1 3 0-0.2 3.7-1 8.5z"/>
	</g>
	<g id="Layer">
		<path id="Layer" fill-rule="evenodd" class="s258" d="m437.5 405.5q-7.1-3.6-10-11-2.6 3.2-3-2 3.8-0.4 7-2.5-1.5-0.5-3-1 2.9-0.5 5-2.5 2 1.8 3.5 4 0.8-2.5-1.5-4 2.2 0 4-1.5-6-3.5 1-4-1 5.5 0 10.5-1 2.9-1.5 6-5 1.9 0.5 2.5-4.9 0.4-1 2.5-2.9 1.1-1 3z"/>
	</g>
	<g id="Layer">
		<path id="Layer" fill-rule="evenodd" class="s121" d="m213.5 393.5q2.8-0.2 1 1.5 1.2 0.5 2 1.5-2.4 1.2-5 1.5 1.8 1 0 1.5-2.1-3.9-4 0 1.6-3.3 0-6.5-1.5-1-3 0 1.7 1.5-1 2 2.2 1.1 2 3.5-3 0.4-5.5-1-0.9-1.4 0.5-2.5-1.9-0.5-3.5-1.5-2.8-2.6 0.5-3.5-1.7-1.7-3-3.5 1.8-0.8 2.5-4 0.9 2.4 3 4 2-1.3 4.5-1-0.4 2.7 1 5 1-0.8 1.5-2 3.6 2.3 6.5 5z"/>
	</g>
	<g id="Layer">
		<path id="Layer" fill-rule="evenodd" class="s259" d="m288.5 385.5q4 0 8 0 2 0 2 2 0.6 1.1 2 1.5-1.8 1.7 0 3.5-1.3 1.2-2.5-1-0.7 1.4-0.5 3-2.9-0.4-5 1.5 1.5 0.5 3 1-1.7 1-3 2.5-2.1-3.9-2.5 1-1.5-1-3.5 0-1-1.5-2-3 1.3-1.6 3 0 1.1-2.2 3-3.5-3.8-2 0-3.5-1.5-2-3-4 0.2-0.9 1-1z"/>
	</g>
	<g id="Layer">
		<path id="Layer" fill-rule="evenodd" class="s149" d="m125.5 396.5q0 1.5 0 3-9.7 9.1-23 11 0.5-2.3 3-2 0.2-2.5 2-4.5-0.5-0.8-1-1.5-5.8 1.5 0-1.5-1.6-2.3-4-0.5 0.2-0.9 1-1.5-4.8 0.1-8-2.5 4.3 0.7 7.5-2 0.8 0.8 2 1 2.7-0.8 0.5-2.5 2.5 0.7 5-0.5 1.5 0.7 0 2-4.9 1.5-1 4 2.1-3.1 5-5 2.7 1.7 3.5-2 3.6 2.9 7.5 5z"/>
	</g>
	<g id="Layer">
		<path id="Layer" fill-rule="evenodd" class="s117" d="m212.5 405.5q-1.9 0.4-3-1-1.4-2.3-2-5 1.9-3.9 4 0 1.8-0.5 0-1.5 2.6-0.3 5-1.5-0.8-1-2-1.5 1.8-1.7-1-1.5 0.6-2.1 3-2.5-1-0.5-2-1 1.9-1.3 3-3.5 0.5 2.1 0 5 3.7-1.2 7-1 1.3-1.5 3-2.5-1.3-2.5 1.5-0.5-0.5-2.2 0.5-4 2-0.8 4-0.5-0.7 0.6-1 1.5 2.7 1.2 2 3.5-2 1.2-2.5 3.5-0.6-0.7-1.5-1-1.1 4.1-3 8 0.3 0.9 1 1.5-3.3 1.8-3 5.5-6.5 0-13 0z"/>
	</g>
	<g id="Layer">
		<path id="Layer" fill-rule="evenodd" class="s260" d="m310.5 401.5q-3.6 3.7-9 4-4.9 0.6-9-2-4.2 1.4-6-3 2-1 3.5 0 0.4-4.9 2.5-1 1.3-1.5 3-2.5-1.5-0.5-3-1 2.1-1.9 5-1.5-0.2-1.6 0.5-3 1.2 2.2 2.5 1-1.8-1.8 0-3.5-1.4-0.4-2-1.5 1.9-0.4 3-2-0.2 1.1 0.5 2 2-2.3 5-3 0.3 0.5 0.5 1-3.4 1-5 4 1 0.5 2 1-1.5 1.3-3 2.5 3.6-0.7 7.5 0.5 2.6-0.4 4.5-2 1.3 1.9 2 4-4.2 1.7-5 6z"/>
	</g>
	<g id="Layer">
		<path id="Layer" fill-rule="evenodd" class="s257" d="m406.5 387.5q7 3.6 15 4 1.7 0.1 3 1 0.4 5.2 3 2 2.9 7.4 10 11-12.7 8.3-27 4 3 0.2 6-0.5-1.7-1.5 1-2-2.1-0.6-3-2.5 2.8-3 6-5.5-1.3-4.1-2.5-0.5-3.9-2.4-4-7-1.5 1.3-3.5 1 0.2 1.6-0.5 3-0.7-4.6-3.5-8z"/>
	</g>
	<g id="Layer">
		<path id="Layer" fill-rule="evenodd" class="s107" d="m92.5 390.5q1.3 3.2 5 3.5-2.2 0.3-4 1.5 0.7 1.2 2 1 3.2 2.6 8 2.5-0.8 0.6-1 1.5-2.3 1.3-4.5-1-4.4 6.2-10.5 3-2.5-1.2-5-3-1 1.5-2 3-7.8 1.6 0-1.5-2-1.5 0-3-2-0.5-4-1 1.4-2.5 1-5.5 1.5 0 3 0-0.3 2.4 1.5 4 0.7-3 2.5-5.5 2.9-1.2 4.5 1.5 1.5-1.3 3.5-1z"/>
	</g>
	<g id="Layer">
		<path id="Layer" fill-rule="evenodd" class="s261" d="m406.5 387.5q-2 2.2-2.5-1-3 2.9-4.5 7 0.5 0.5 1 1 2-1.5 4-3 4.5 2.3 1 5 3.3 4.1 6 8.5-0.4 2.3-1 4.5-5.7-1-11-3.5-4.6-1.4-7-5.5 4.3-7.9 9-15.5 3.3-0.4 5 2.5z"/>
	</g>
	<g id="Layer">
		<path id="Layer" fill-rule="evenodd" class="s262" d="m102.5 400.5q2.4-1.8 4 0.5-5.8 3 0 1.5 0.5 0.8 1 1.5-1.8 2-2 4.5-2.5-0.3-3 2-8.8 2.1-17-1 0.6-1.1 2-1.5-2-1-3-3 2.2-0.6 3-2.5 6.1 3.2 10.5-3 2.2 2.3 4.5 1z"/>
	</g>
	<g id="Layer">
		<path id="Layer" fill-rule="evenodd" class="s263" d="m141.5 373.5q1.4 1.2 2 3-1.5 0-3 0 0.3 3-2 5 0.2 3.8 0 7.5 0.6 1.4 2 2-1.8 1.7 1 1.5-0.2 0.9-1 1.5 3.1 1.7 7 0.5 0 2 0 4-1.6-0.2-3 0.5 1.8 1.4 2.5 3.5 0.1-3.6 3.5-4 0 1 0 2-1.5 2.7-4.5 4-1-1-2-2-13.2 5.5-11.5-9 1.5 0 3 0 1 1.2 2.5 2 0.8-0.5 1.5-1-2.1 0.6-3-2.5 0.9-3.8 1-8-5-2.9-1-7.5 2.8-1.2 5-3z"/>
	</g>
	<g id="Layer">
		<path id="Layer" fill-rule="evenodd" class="s264" d="m360.5 388.5q-1.1 7.6-3 15-2.6-0.2-5 1-1.2-3.4-1.5-7-0.5 1.9-1.5 3.5-3.3 1.2-6-0.5 1.1-0.6 1.5-2 1 3.8 2.5 0-2.7-1.7-1-4 0.5 1 1 2 1.6-1.8 4-2.5-0.3-0.6-1-0.5 1.2-2.3 1-5 4 0.1 7.5-2 0.4 1.4 1.5 2z"/>
	</g>
	<g id="Layer">
		<path id="Layer" fill-rule="evenodd" class="s265" d="m151.5 385.5q0 10.5 0 21-10.3 0.5-20-1 9.5 0 19 0 0-2.5 0-5 0-1 0-2-0.5-6.8 1-13z"/>
	</g>
	<g id="Layer">
		<path id="Layer" fill-rule="evenodd" class="s266" d="m191.5 403.5q1.4 1.1 1 3-12.3 0.5-24-1 12.1 0.9 23-2z"/>
	</g>
	<g id="Layer">
	</g>
	<g id="Layer">
	</g>
	<g id="Layer">
	</g>
	<g id="Layer">
	</g>
	<g id="Layer">
	</g>
	<g id="Layer">
		<path id="Layer" fill-rule="evenodd" class="s267" d="m242.5 423.5q3-2 6 0-3.3 0.7-6 0z"/>
	</g>
	<g id="Layer">
		<path id="Layer" fill-rule="evenodd" class="s268" d="m284.5 423.5q3.8-2.1 7 1-3.5-0.7-7-1z"/>
	</g>
	<g id="Layer">
	</g>
	<g id="Layer">
	</g>
	<g id="Layer">
	</g>
	<g id="Layer">
		<path id="Layer" fill-rule="evenodd" class="s269" d="m316.5 418.5q0 11.5 0 23-1-5.6-2-11.5-0.3-5.8 2-11.5z"/>
	</g>
	<g id="Layer">
	</g>
	<g id="Layer">
		<path id="Layer" fill-rule="evenodd" class="s270" d="m258.5 417.5q0 11.5 0 23-1-6.5-2-13 0-1.5 0-3 1-3.5 2-7z"/>
	</g>
	<g id="Layer">
	</g>
	<g id="Layer">
	</g>
	<g id="Layer">
		<path id="Layer" fill-rule="evenodd" class="s64" d="m161.5 429.5q1.6 1.1 0.5 3-0.7-1.4-0.5-3z"/>
	</g>
	<g id="Layer">
	</g>
	<g id="Layer">
	</g>
	<g id="Layer">
	</g>
	<g id="Layer">
	</g>
	<g id="Layer">
	</g>
	<g id="Layer">
		<path id="Layer" fill-rule="evenodd" class="s271" d="m373.5 431.5q0 1.5 0 3 8.5 0 17 0-8.8 2-18 0-1.9-2.1 1-3z"/>
	</g>
	<g id="Layer">
		<path id="Layer" fill-rule="evenodd" class="s272" d="m152.5 432.5q1 2 0 3.5 4.8 0.3 9 1.5-5 0-10 0-0.4-2.9 1-5z"/>
	</g>
	<g id="Layer">
		<path id="Layer" fill-rule="evenodd" class="s273" d="m221.5 432.5q0 2 0 4 5.3-0.5 10 1-5.5 0-11 0-0.4-2.9 1-5z"/>
	</g>
	<g id="Layer">
		<text id="" style="transform: matrix(1,0,0,1,122,397)" >
		</text>
		<text id="ENTERPRISE" style="transform: matrix(1.102,0,0,1.102,115.695,453.248)" >
			<tspan x="0" y="0" class="t274">E</tspan><tspan  y="0" class="t274">N</tspan><tspan  y="0" class="t274">T</tspan><tspan  y="0" class="t274">E</tspan><tspan  y="0" class="t274">R</tspan><tspan  y="0" class="t274">P</tspan><tspan  y="0" class="t274">R</tspan><tspan  y="0" class="t274">I</tspan><tspan  y="0" class="t274">S</tspan><tspan  y="0" class="t274">E
</tspan>
		</text>
	</g>
	<g id="Layer">
	</g>
	<g id="Layer">
	</g>
	<g id="Layer">
	</g>
	<g id="Layer">
		<path id="Layer" fill-rule="evenodd" class="s64" d="m300.5 439.5q2 1 0 0z"/>
	</g>
	<g id="Layer">
	</g>
	<g id="Layer">
		<path id="Layer" fill-rule="evenodd" class="s275" d="m134.5 439.5q1.6 0.2 2 2-0.5 1-1 2-1.4-1.8-1-4z"/>
	</g>
</svg>